<?xml version="1.0" encoding="iso-8859-1"?>
<!-- Generator: Adobe Illustrator 19.0.0, SVG Export Plug-In . SVG Version: 6.00 Build 0)  -->
<svg version="1.1" id="Layer_1" xmlns="http://www.w3.org/2000/svg" xmlns:xlink="http://www.w3.org/1999/xlink" x="0px" y="0px"
	 viewBox="0 0 512 512" style="enable-background:new 0 0 512 512;" xml:space="preserve">
<circle style="fill:#4DE1FF;" cx="256" cy="256" r="247.83"/>
<path style="fill:#096C80;" d="M42.327,281.13c17.051-0.539,32.081-10.322,41.533-25.13c9.726,15.237,25.378,25.183,43.053,25.183
	c17.662,0,33.269-9.946,43.009-25.183c9.755,15.237,25.378,25.183,43.038,25.183c17.676,0,33.283-9.946,43.024-25.183
	c9.726,15.237,25.378,25.183,43.038,25.183s33.284-9.946,43.024-25.183c9.755,15.237,25.378,25.183,43.038,25.183
	c17.662,0,33.284-9.946,43.024-25.183c9.453,14.809,24.511,24.591,41.564,25.13C457.187,387.966,366.133,471.149,256,471.149
	S54.813,387.966,42.327,281.13c17.053-0.539,32.11-10.322,41.564-25.13c9.74,15.237,25.363,25.183,43.024,25.183
	c17.661,0,33.283-9.946,43.039-25.183c9.74,15.237,25.364,25.183,43.024,25.183s33.313-9.946,43.039-25.183
	c9.741,15.237,25.348,25.183,43.024,25.183c17.662,0,33.284-9.946,43.038-25.183c9.74,15.237,25.347,25.183,43.009,25.183
	c17.676,0,33.327-9.946,43.053-25.183c9.452,14.809,24.482,24.591,41.533,25.13"/>
<circle style="fill:#FFC240;" cx="256" cy="148.426" r="51.745"/>
<g>
	<path style="fill:#03242B;" d="M437.019,74.981C388.667,26.628,324.38,0,256,0S123.333,26.628,74.981,74.981S0,187.62,0,256
		s26.628,132.667,74.981,181.019S187.62,512,256,512s132.667-26.628,181.019-74.981S512,324.38,512,256
		S485.372,123.333,437.019,74.981z M256,495.66c-132.149,0-239.66-107.51-239.66-239.66S123.851,16.34,256,16.34
		S495.66,123.851,495.66,256S388.149,495.66,256,495.66z"/>
	<path style="fill:#03242B;" d="M416.681,189.526c3.848,0,7.337,1.987,9.334,5.315c1.476,2.462,4.136,3.967,7.007,3.967
		s5.53-1.505,7.007-3.967c1.997-3.328,5.486-5.315,9.334-5.315c4.513,0,8.17-3.657,8.17-8.17s-3.657-8.17-8.17-8.17
		c-5.949,0-11.682,1.992-16.34,5.489c-4.658-3.497-10.391-5.489-16.34-5.489c-4.513,0-8.17,3.657-8.17,8.17
		S412.168,189.526,416.681,189.526z"/>
	<path style="fill:#03242B;" d="M351.319,147.564c3.848,0,7.337,1.987,9.334,5.315c1.476,2.462,4.136,3.967,7.007,3.967
		c2.87,0,5.53-1.505,7.007-3.967c1.997-3.328,5.486-5.315,9.334-5.315c4.513,0,8.17-3.657,8.17-8.17s-3.657-8.17-8.17-8.17
		c-5.949,0-11.682,1.992-16.34,5.489c-4.658-3.497-10.391-5.489-16.34-5.489c-4.513,0-8.17,3.657-8.17,8.17
		C343.149,143.907,346.806,147.564,351.319,147.564z"/>
	<path style="fill:#03242B;" d="M128,189.526c3.848,0,7.337,1.987,9.334,5.315c1.476,2.462,4.136,3.967,7.007,3.967
		c2.87,0,5.53-1.505,7.007-3.967c1.997-3.328,5.486-5.315,9.334-5.315c4.513,0,8.17-3.657,8.17-8.17s-3.657-8.17-8.17-8.17
		c-5.949,0-11.682,1.992-16.34,5.489c-4.658-3.497-10.391-5.489-16.34-5.489c-4.513,0-8.17,3.657-8.17,8.17
		S123.487,189.526,128,189.526z"/>
	<path style="fill:#03242B;" d="M475.861,275.797c-1.493-1.733-3.644-2.759-5.929-2.832c-13.796-0.436-26.518-8.223-34.904-21.36
		c-1.501-2.351-4.098-3.775-6.887-3.775c-2.789,0-5.386,1.424-6.886,3.774c-8.687,13.605-21.868,21.408-36.167,21.408
		c-14.259,0-27.427-7.804-36.125-21.413c-1.501-2.346-4.095-3.768-6.88-3.769c-2.789,0-5.381,1.419-6.884,3.765
		c-8.715,13.61-21.894,21.417-36.158,21.417c-14.268,0-27.44-7.804-36.14-21.413c-1.502-2.348-4.097-3.769-6.884-3.769
		c-2.791,0.001-5.386,1.424-6.886,3.774c-8.687,13.605-21.862,21.408-36.153,21.408c-14.268,0-27.441-7.804-36.141-21.412
		c-1.501-2.346-4.095-3.768-6.88-3.769c-2.789,0-5.381,1.419-6.884,3.765c-8.715,13.61-21.894,21.417-36.157,21.417
		c-14.27,0-27.441-7.804-36.14-21.411c-1.501-2.349-4.097-3.77-6.884-3.77c-2.791,0.001-5.386,1.424-6.886,3.775
		c-8.387,13.139-21.122,20.923-34.936,21.36c-2.287,0.072-4.436,1.099-5.929,2.832c-1.494,1.732-2.193,4.011-1.927,6.282
		c6.303,53.93,32.185,103.724,72.879,140.207c41.019,36.778,93.902,57.032,148.905,57.032c49.284,0,96.049-15.815,135.239-45.734
		c3.587-2.738,4.275-7.865,1.536-11.451c-2.738-3.587-7.866-4.278-11.451-1.536c-36.317,27.725-79.653,42.38-125.323,42.38
		c-102.271,0-188.76-74.538-204.451-174.697c12.272-2.415,23.488-8.949,32.362-18.829c11.427,12.619,26.878,19.899,43.004,19.899
		c16.131,0,31.594-7.289,43.035-19.926c11.431,12.637,26.891,19.926,43.028,19.926c16.153,0,31.615-7.287,43.042-19.918
		c11.431,12.631,26.888,19.918,43.02,19.918c16.131,0,31.594-7.289,43.035-19.926c11.431,12.637,26.884,19.926,43.013,19.926
		c16.151,0,31.611-7.278,43.035-19.896c8.867,9.875,20.068,16.407,32.322,18.822c-6.584,41.589-26.153,80.881-55.632,111.408
		c-3.134,3.245-3.044,8.419,0.203,11.553c3.246,3.134,8.42,3.043,11.553-0.203c33.857-35.061,55.599-80.859,61.22-128.959
		C478.054,279.807,477.355,277.529,475.861,275.797z"/>
	<path style="fill:#03242B;" d="M315.384,338.373c-4.513,0-8.17,3.657-8.17,8.17c0,4.513,3.657,8.17,8.17,8.17h10.894
		c4.513,0,8.17-3.657,8.17-8.17c0-4.513-3.657-8.17-8.17-8.17H315.384z"/>
	<path style="fill:#03242B;" d="M390.525,305.692h-10.894c-4.513,0-8.17,3.657-8.17,8.17c0,4.513,3.657,8.17,8.17,8.17h10.894
		c4.513,0,8.17-3.657,8.17-8.17C398.695,309.349,395.038,305.692,390.525,305.692z"/>
	<path style="fill:#03242B;" d="M121.467,305.692c-4.513,0-8.17,3.657-8.17,8.17c0,4.513,3.657,8.17,8.17,8.17h10.894
		c4.513,0,8.17-3.657,8.17-8.17c0-4.513-3.657-8.17-8.17-8.17H121.467z"/>
	<path style="fill:#03242B;" d="M256,208.34c33.037,0,59.915-26.878,59.915-59.915S289.037,88.511,256,88.511
		s-59.915,26.878-59.915,59.915S222.963,208.34,256,208.34z M256,104.851c24.027,0,43.574,19.548,43.574,43.574S280.027,192,256,192
		s-43.574-19.548-43.574-43.574S231.973,104.851,256,104.851z"/>
</g>
<g>
</g>
<g>
</g>
<g>
</g>
<g>
</g>
<g>
</g>
<g>
</g>
<g>
</g>
<g>
</g>
<g>
</g>
<g>
</g>
<g>
</g>
<g>
</g>
<g>
</g>
<g>
</g>
<g>
</g>
</svg>
