<?xml version="1.0" encoding="iso-8859-1"?>
<!-- Generator: Adobe Illustrator 19.0.0, SVG Export Plug-In . SVG Version: 6.00 Build 0)  -->
<svg version="1.1" id="Layer_1" xmlns="http://www.w3.org/2000/svg" xmlns:xlink="http://www.w3.org/1999/xlink" x="0px" y="0px"
	 viewBox="0 0 512 512" style="enable-background:new 0 0 512 512;" xml:space="preserve">
<circle style="fill:#BFD98F;" cx="256" cy="256" r="247.83"/>
<path style="fill:#557714;" d="M80.985,231.573c-14.827,4.104-28.542,11.471-40.118,21.476c-0.013,0.982-0.016,1.966-0.016,2.951
	c0,27.676,5.266,54.141,14.827,78.466L80.985,231.573z"/>
<path style="fill:#405A0F;" d="M113.342,297.882c-2.235-25.454-13.944-49.074-32.356-66.308L55.678,334.466
	c0.243,0.618,33.157,1.241,33.405,1.855L113.342,297.882z"/>
<path style="fill:#7FB21E;" d="M63.617,328.484c-2.532,2.533-4.934,5.146-7.205,7.831l-0.033,0.052
	c8.353,20.728,19.846,39.85,33.879,56.791l96.821-96.821C144.548,284.374,97.025,295.076,63.617,328.484z"/>
<g>
	<path style="fill:#557714;" d="M187.079,296.338l-96.821,96.821c13.284,16.035,28.842,30.118,46.194,41.736l0.218,0.039
		c6.436-4.383,12.555-9.426,18.263-15.135C188.341,386.392,199.043,338.869,187.079,296.338z"/>
	<path style="fill:#557714;" d="M431.015,231.573c14.827,4.104,28.542,11.471,40.118,21.476c0.013,0.982,0.016,1.966,0.016,2.951
		c0,27.676-5.266,54.141-14.827,78.466L431.015,231.573z"/>
</g>
<path style="fill:#405A0F;" d="M398.658,297.882c2.235-25.454,13.944-49.074,32.356-66.308l25.307,102.892
	c-0.243,0.618-33.157,1.241-33.405,1.855L398.658,297.882z"/>
<path style="fill:#7FB21E;" d="M448.383,328.484c2.532,2.533,4.934,5.146,7.205,7.831l0.033,0.052
	c-8.353,20.728-19.846,39.85-33.879,56.791l-96.821-96.821C367.451,284.374,414.975,295.076,448.383,328.484z"/>
<path style="fill:#557714;" d="M324.921,296.338l96.821,96.821c-13.284,16.035-28.842,30.118-46.194,41.736l-0.218,0.039
	c-6.436-4.383-12.555-9.426-18.263-15.135C323.659,386.392,312.957,338.869,324.921,296.338z"/>
<path style="fill:#FF6E36;" d="M256,471.149c10.534,0,20.887-0.771,31.016-2.234l-18.179-295.446L256,162.575l-12.837,10.894
	l-18.179,295.446C235.113,470.378,245.466,471.149,256,471.149z"/>
<path style="fill:#7FB21E;" d="M383.853,83.132L256,162.652c-2.292-30.515,12.039-61.233,39.823-78.514
	S357.496,67.584,383.853,83.132z"/>
<path style="fill:#557714;" d="M406.176,173.469L256,162.652c16.082-26.035,45.73-42.462,78.367-40.111
	C367.003,124.891,393.992,145.398,406.176,173.469z"/>
<g>
	<path style="fill:#7FB21E;" d="M371.137,259.674L256,162.652c28.314-11.609,61.956-7.473,86.977,13.612
		C367.998,197.349,377.779,229.803,371.137,259.674z"/>
	<path style="fill:#7FB21E;" d="M128.147,83.132L256,162.652c2.292-30.515-12.039-61.233-39.823-78.514
		C188.392,66.856,154.504,67.584,128.147,83.132z"/>
</g>
<path style="fill:#557714;" d="M105.824,173.469L256,162.652c-16.082-26.035-45.73-42.462-78.367-40.111
	C144.997,124.891,118.008,145.398,105.824,173.469z"/>
<path style="fill:#7FB21E;" d="M140.863,259.674L256,162.652c-28.314-11.609-61.956-7.473-86.977,13.612
	C144.002,197.349,134.221,229.803,140.863,259.674z"/>
<g>
	<path style="fill:#03242B;" d="M437.019,74.981C388.667,26.628,324.38,0,256,0S123.333,26.628,74.981,74.981
		C26.628,123.332,0,187.62,0,256s26.628,132.668,74.981,181.019C123.333,485.372,187.62,512,256,512s132.667-26.628,181.019-74.981
		C485.372,388.668,512,324.38,512,256S485.372,123.332,437.019,74.981z M256,495.66c-132.149,0-239.66-107.51-239.66-239.66
		S123.851,16.34,256,16.34S495.66,123.851,495.66,256S388.149,495.66,256,495.66z"/>
	<path style="fill:#03242B;" d="M463.218,339.235c10.375-25.737,16.101-53.829,16.101-83.235c0-1.023-0.002-2.046-0.017-3.065
		c-0.033-2.333-1.062-4.54-2.827-6.067c-12.458-10.768-27.425-18.779-43.28-23.169c-0.348-0.093-0.667-0.159-0.991-0.207
		c-0.06-0.009-0.12-0.012-0.181-0.02c-0.254-0.032-0.51-0.051-0.768-0.059c-0.097-0.003-0.193-0.003-0.29-0.003
		c-0.225,0.001-0.452,0.014-0.68,0.035c-0.098,0.009-0.196,0.014-0.294,0.026c-0.279,0.036-0.559,0.085-0.839,0.151
		c-0.062,0.014-0.123,0.031-0.184,0.046c-0.276,0.072-0.545,0.156-0.806,0.254c-0.09,0.034-0.179,0.074-0.267,0.111
		c-0.215,0.088-0.423,0.183-0.626,0.289c-0.084,0.044-0.166,0.087-0.248,0.133c-0.228,0.127-0.448,0.266-0.66,0.413
		c-0.048,0.034-0.098,0.063-0.145,0.098c-0.265,0.193-0.517,0.4-0.756,0.621c-17.739,16.602-29.46,38.291-33.647,61.89
		c-22.348-5.581-46.152-5.46-69.104,0.997c-0.346,0.101-0.656,0.21-0.959,0.338c-0.05,0.021-0.098,0.046-0.147,0.069
		c-0.242,0.108-0.479,0.228-0.711,0.359c-0.076,0.044-0.151,0.088-0.227,0.134c-0.205,0.125-0.403,0.26-0.598,0.405
		c-0.069,0.051-0.139,0.098-0.206,0.151c-0.246,0.195-0.487,0.402-0.715,0.629c-0.233,0.233-0.44,0.474-0.635,0.721
		c-0.051,0.065-0.098,0.134-0.148,0.202c-0.146,0.197-0.283,0.399-0.41,0.606c-0.045,0.073-0.087,0.146-0.13,0.22
		c-0.134,0.236-0.256,0.477-0.365,0.723c-0.021,0.046-0.044,0.089-0.063,0.136c-0.129,0.306-0.239,0.617-0.329,0.934
		c-13.174,46.831-0.056,97.199,34.224,131.482c3.074,3.073,6.3,5.997,9.648,8.756c-20.176,11.918-42.535,20.508-66.325,25.016
		l-16.45-267.338l87.708,73.91c1.495,1.259,3.366,1.923,5.266,1.923c0.877,0,1.759-0.141,2.614-0.43
		c2.706-0.915,4.74-3.178,5.36-5.968c6.702-30.139-1.854-61.097-22.426-83.352l48.903,3.523c0.197,0.014,0.392,0.022,0.588,0.022
		c2.636,0,5.127-1.276,6.665-3.446c1.653-2.331,1.966-5.356,0.829-7.977c-12.293-28.322-37.412-48.338-67.136-54.251l41.634-25.895
		c2.427-1.509,3.888-4.177,3.854-7.034c-0.033-2.857-1.558-5.49-4.018-6.941c-29.987-17.689-66.963-17.264-96.496,1.106
		c-15.859,9.863-28.001,24.754-35.414,42.634c-7.333-17.857-19.461-32.596-35.603-42.634c-29.534-18.369-66.509-18.794-96.496-1.106
		c-2.461,1.452-3.985,4.084-4.018,6.941c-0.034,2.857,1.428,5.524,3.854,7.034l41.634,25.895
		c-29.724,5.912-54.843,25.929-67.136,54.251c-1.137,2.621-0.824,5.646,0.829,7.977c1.538,2.171,4.028,3.446,6.665,3.446
		c0.195,0,0.391-0.007,0.588-0.022l48.903-3.523c-20.573,22.256-29.127,53.213-22.426,83.352c0.62,2.79,2.654,5.052,5.36,5.968
		c0.855,0.289,1.739,0.43,2.614,0.43c1.9,0,3.771-0.662,5.266-1.923l87.708-73.91l-16.453,267.335
		c-23.789-4.508-46.15-13.098-66.325-25.016c3.349-2.759,6.575-5.684,9.65-8.757c34.28-34.281,47.398-84.651,34.234-131.452
		c-0.1-0.345-0.21-0.656-0.339-0.962c-0.02-0.046-0.042-0.09-0.063-0.136c-0.109-0.246-0.231-0.487-0.365-0.722
		c-0.042-0.074-0.086-0.148-0.131-0.221c-0.126-0.207-0.264-0.407-0.41-0.605c-0.05-0.068-0.096-0.136-0.148-0.202
		c-0.195-0.247-0.402-0.488-0.63-0.716c-0.233-0.233-0.474-0.44-0.72-0.635c-0.066-0.052-0.136-0.099-0.204-0.149
		c-0.196-0.146-0.395-0.282-0.601-0.407c-0.074-0.045-0.148-0.089-0.223-0.132c-0.234-0.134-0.474-0.255-0.718-0.363
		c-0.047-0.021-0.093-0.045-0.141-0.065c-0.305-0.129-0.614-0.239-0.929-0.328c-22.981-6.466-46.786-6.587-69.135-1.007
		c-4.186-23.599-15.908-45.289-33.621-61.869c-0.265-0.244-0.519-0.451-0.784-0.644c-0.046-0.034-0.094-0.062-0.141-0.095
		c-0.214-0.149-0.436-0.288-0.666-0.416c-0.081-0.046-0.162-0.089-0.245-0.132c-0.205-0.106-0.416-0.202-0.632-0.291
		c-0.087-0.036-0.173-0.075-0.263-0.109c-0.266-0.099-0.538-0.185-0.818-0.257c-0.054-0.014-0.109-0.028-0.164-0.041
		c-0.287-0.068-0.572-0.119-0.857-0.155c-0.085-0.011-0.171-0.015-0.257-0.023c-0.245-0.023-0.489-0.036-0.732-0.037
		c-0.081,0-0.16,0-0.241,0.002c-0.285,0.008-0.569,0.028-0.849,0.065c-0.035,0.004-0.07,0.007-0.105,0.012
		c-0.338,0.049-0.671,0.118-0.997,0.208c-15.87,4.391-30.837,12.403-43.295,23.172c-1.765,1.526-2.793,3.733-2.827,6.067
		c-0.014,1.021-0.016,2.044-0.016,3.067c0,29.406,5.726,57.498,16.101,83.234c0.021,0.053,0.044,0.107,0.065,0.159
		c16.906,41.843,46.13,77.434,83.162,102.249c0.051,0.035,0.102,0.068,0.155,0.101c26.915,18.003,57.941,30.313,91.346,35.204
		c0.172,0.032,0.348,0.053,0.523,0.073c10.444,1.506,21.114,2.3,31.967,2.3c10.853,0,21.524-0.794,31.968-2.297
		c0.175-0.021,0.351-0.042,0.523-0.073c33.406-4.891,64.432-17.201,91.348-35.205c0.05-0.034,0.101-0.065,0.151-0.099
		c37.033-24.816,66.257-60.406,83.163-102.25C463.175,339.341,463.199,339.288,463.218,339.235z M426.724,248.335l9.045,36.775
		c0.917,3.726,4.254,6.22,7.927,6.22c0.646,0,1.302-0.077,1.958-0.239c4.381-1.077,7.06-5.503,5.983-9.885l-9.038-36.746
		c7.27,3.287,14.153,7.463,20.378,12.434c-0.096,22.409-3.784,43.983-10.496,64.191c-13.091-12.642-28.409-22.275-44.919-28.628
		C410.05,276.312,416.66,261.148,426.724,248.335z M364.964,243.79l-90.641-76.382c-0.099-0.089-0.203-0.173-0.306-0.257
		l-1.308-1.102c5.109-1.056,10.328-1.587,15.618-1.587c18.034,0,35.572,6.41,49.385,18.05
		C355.966,197.892,365.781,220.486,364.964,243.79z M391.847,164.245l-57.994-4.178c-13.831-7.767-29.513-11.947-45.526-11.947
		c-3.229,0-6.435,0.174-9.616,0.5c15.064-12.764,34.693-19.396,55.068-17.932C357.588,132.404,378.809,144.912,391.847,164.245z
		 M300.139,91.075c20.268-12.606,44.788-14.961,66.701-6.983l-49.325,30.68c-18.55,2.133-35.903,9.77-49.92,21.841
		C272.924,117.136,284.275,100.941,300.139,91.075z M211.861,91.075c16.179,10.062,27.466,26.076,32.685,45.661
		c-14.042-12.142-31.448-19.825-50.062-21.966L145.16,84.091C167.074,76.115,191.593,78.469,211.861,91.075z M178.221,130.689
		c20.372-1.468,40.005,5.167,55.069,17.933c-3.181-0.326-6.387-0.501-9.617-0.501c-16.013,0-31.694,4.181-45.526,11.947
		l-57.994,4.178C133.191,144.912,154.412,132.404,178.221,130.689z M174.287,182.512c13.813-11.64,31.351-18.05,49.385-18.05
		c5.289,0,10.508,0.532,15.618,1.587l-92.256,77.741C146.218,220.486,156.034,197.892,174.287,182.512z M69.401,244.459
		l-9.038,36.746c-1.077,4.381,1.601,8.807,5.983,9.885c0.656,0.161,1.312,0.239,1.958,0.239c3.673,0,7.011-2.495,7.927-6.22
		l9.045-36.775c10.064,12.814,16.674,27.978,19.162,44.121c-16.51,6.353-31.828,15.986-44.919,28.628
		c-6.712-20.208-10.4-41.782-10.496-64.192C55.249,251.923,62.131,247.746,69.401,244.459z M65.922,337.884
		c1.134-1.233,2.294-2.443,3.473-3.622c26.674-26.675,64.45-38.744,101.313-33.107l-62.947,62.947
		c-3.191,3.191-3.191,8.364,0,11.554c1.596,1.596,3.686,2.393,5.778,2.393c2.09,0,4.182-0.797,5.778-2.393l62.945-62.945
		c5.636,36.865-6.432,74.638-33.106,101.313c-3.939,3.939-8.157,7.603-12.584,10.936C105.721,403.087,81.101,372.984,65.922,337.884
		z M233.609,461.763l1.751-28.452h16.283c4.513,0,8.17-3.658,8.17-8.17s-3.657-8.17-8.17-8.17h-15.277l14.738-239.508l4.897-4.126
		l4.897,4.126l10.702,173.919h-6.514c-4.513,0-8.17,3.658-8.17,8.17s3.657,8.17,8.17,8.17h7.52l5.787,94.042
		c-7.358,0.794-14.825,1.215-22.391,1.215C248.434,462.979,240.967,462.558,233.609,461.763z M375.429,424.959
		c-4.428-3.333-8.645-6.997-12.584-10.935c-26.675-26.675-38.743-64.448-33.107-101.313l62.947,62.947
		c1.596,1.595,3.688,2.393,5.778,2.393s4.182-0.797,5.778-2.393c3.191-3.191,3.191-8.364,0-11.554l-62.948-62.948
		c36.863-5.635,74.638,6.431,101.315,33.107c1.179,1.178,2.338,2.388,3.472,3.621C430.899,372.984,406.28,403.087,375.429,424.959z"
		/>
</g>
<g>
</g>
<g>
</g>
<g>
</g>
<g>
</g>
<g>
</g>
<g>
</g>
<g>
</g>
<g>
</g>
<g>
</g>
<g>
</g>
<g>
</g>
<g>
</g>
<g>
</g>
<g>
</g>
<g>
</g>
</svg>
