<?xml version="1.0" encoding="iso-8859-1"?>
<!-- Generator: Adobe Illustrator 19.0.0, SVG Export Plug-In . SVG Version: 6.00 Build 0)  -->
<svg version="1.1" id="Layer_1" xmlns="http://www.w3.org/2000/svg" xmlns:xlink="http://www.w3.org/1999/xlink" x="0px" y="0px"
	 viewBox="0 0 512 512" style="enable-background:new 0 0 512 512;" xml:space="preserve">
<circle style="fill:#C4F5FF;" cx="256" cy="256" r="247.83"/>
<polygon style="fill:#2DB8D4;" points="417.346,256 341.536,124.694 295.186,66.202 248.733,124.768 172.863,256 295.105,277.787 
	"/>
<polygon style="fill:#4DE1FF;" points="255.969,256 194.887,150.201 148.533,91.701 102.081,150.263 40.951,256 148.46,277.787 "/>
<path style="fill:#0C8FAA;" d="M458.078,182.116H277.411L223.972,256l123.589,21.787L471.149,256
	C471.149,230.055,466.532,205.167,458.078,182.116z"/>
<g>
	<polygon style="fill:#FFFFFF;" points="295.076,44.414 248.696,124.747 271.881,141.901 295.067,124.746 318.255,141.901 
		341.443,124.746 	"/>
	<path style="fill:#FFFFFF;" d="M40.851,256c0,22.791,3.556,44.748,10.121,65.362l111.07,76.255l264.834-10.894
		c27.763-36.235,44.273-81.549,44.273-130.723H40.851z"/>
</g>
<path style="fill:#9FC657;" d="M256,471.149c69.648,0,131.555-33.105,170.876-84.426h-253.94c-9.024,0-16.34-7.316-16.34-16.34
	s7.316-16.34,16.34-16.34h59.915c9.024,0,16.34-7.316,16.34-16.34s-7.316-16.34-16.34-16.34H50.972
	C78.641,408.225,159.967,471.149,256,471.149z"/>
<polygon style="fill:#FFFFFF;" points="148.432,69.914 102.052,150.247 125.237,167.4 148.422,150.246 171.61,167.4 194.8,150.246 
	"/>
<g>
	<path style="fill:#03242B;" d="M437.019,74.981C388.667,26.628,324.38,0,256,0S123.332,26.628,74.981,74.981
		C26.628,123.332,0,187.62,0,256s26.628,132.668,74.981,181.019C123.332,485.372,187.62,512,256,512s132.667-26.628,181.019-74.981
		C485.372,388.668,512,324.38,512,256S485.372,123.332,437.019,74.981z M256,495.66c-132.149,0-239.66-107.51-239.66-239.66
		S123.851,16.34,256,16.34S495.66,123.851,495.66,256S388.149,495.66,256,495.66z"/>
	<path style="fill:#03242B;" d="M229.148,158.513c1.288,0.744,2.694,1.098,4.082,1.098c2.821,0,5.567-1.464,7.081-4.083
		l10.872-18.806l15.875,11.745c1.443,1.068,3.153,1.602,4.86,1.602s3.416-0.534,4.86-1.602l18.325-13.559l18.329,13.559
		c2.889,2.136,6.83,2.136,9.719,0l15.838-11.717l9.681,16.77c2.255,3.908,7.255,5.247,11.161,2.99
		c3.908-2.256,5.246-7.253,2.99-11.16L302.187,40.329c-1.459-2.527-4.155-4.084-7.073-4.085c-2.919,0-5.615,1.556-7.075,4.081
		L226.163,147.35C223.905,151.257,225.242,156.255,229.148,158.513z M295.107,60.747l35.658,61.762l-12.475,9.229l-18.329-13.559
		c-2.889-2.136-6.831-2.136-9.719,0l-18.325,13.559l-12.504-9.251L295.107,60.747z"/>
	<path style="fill:#03242B;" d="M55.655,230.392c1.288,0.744,2.694,1.098,4.082,1.098c2.821,0,5.567-1.464,7.081-4.083
		l37.685-65.185l15.874,11.744c2.887,2.136,6.831,2.136,9.719,0l18.326-13.559l18.329,13.559c1.443,1.068,3.152,1.602,4.859,1.602
		s3.415-0.534,4.859-1.602l15.839-11.717l24.423,42.303c2.256,3.909,7.254,5.247,11.16,2.99c3.908-2.256,5.246-7.253,2.99-11.161
		L155.507,65.829c-1.459-2.527-4.155-4.084-7.073-4.085c-2.919,0-5.616,1.556-7.076,4.081L52.67,219.229
		C50.413,223.136,51.749,228.133,55.655,230.392z M148.428,86.247l35.658,61.761l-12.475,9.229l-18.33-13.559
		c-2.887-2.136-6.831-2.136-9.718,0l-18.325,13.559l-12.503-9.251L148.428,86.247z"/>
	<path style="fill:#03242B;" d="M435.533,280.511H174.511c-4.512,0-8.17,3.658-8.17,8.17c0,4.512,3.658,8.17,8.17,8.17h261.022
		c4.513,0,8.17-3.658,8.17-8.17C443.704,284.169,440.045,280.511,435.533,280.511z"/>
	<path style="fill:#03242B;" d="M141.829,280.511H76.468c-4.512,0-8.17,3.658-8.17,8.17c0,4.512,3.658,8.17,8.17,8.17h65.362
		c4.512,0,8.17-3.658,8.17-8.17C150,284.169,146.342,280.511,141.829,280.511z"/>
	<path style="fill:#03242B;" d="M426.359,313.191H306.473c-4.513,0-8.17,3.658-8.17,8.17s3.657,8.17,8.17,8.17h119.885
		c4.513,0,8.17-3.658,8.17-8.17S430.871,313.191,426.359,313.191z"/>
	<path style="fill:#03242B;" d="M409.83,345.872h-59.782c-4.513,0-8.17,3.658-8.17,8.17s3.657,8.17,8.17,8.17h59.782
		c4.513,0,8.17-3.658,8.17-8.17S414.343,345.872,409.83,345.872z"/>
	<path style="fill:#03242B;" d="M465.749,179.303c-1.18-3.218-4.243-5.356-7.67-5.356H277.411c-2.621,0-5.084,1.258-6.62,3.381
		l-50.994,70.501H40.851c-4.512,0-8.17,3.658-8.17,8.17c0,23.26,3.604,46.082,10.523,67.781
		c9.93,31.122,26.668,59.905,49.437,84.341c38.466,41.28,90.46,66.339,146.404,70.559c0.209,0.016,0.417,0.024,0.623,0.024
		c4.233,0,7.815-3.266,8.139-7.556c0.34-4.499-3.033-8.422-7.532-8.762c-81.555-6.153-149.67-60.051-177.625-132.855h170.201
		c4.505,0,8.17,3.665,8.17,8.17s-3.666,8.17-8.17,8.17h-59.915c-13.516,0-24.511,10.995-24.511,24.511s10.995,24.511,24.511,24.511
		h236.11c-34.511,38.033-82.921,63.39-137.321,67.495c-4.499,0.34-7.872,4.263-7.532,8.762c0.324,4.29,3.905,7.556,8.139,7.556
		c0.206,0,0.414-0.008,0.623-0.024c55.943-4.221,107.937-29.279,146.404-70.559c38.665-41.496,59.96-95.521,59.96-152.123
		C479.319,229.658,474.754,203.853,465.749,179.303z M281.585,190.286h33.309v24.511c0,4.512,3.657,8.17,8.17,8.17
		c4.513,0,8.17-3.658,8.17-8.17v-24.511h81.702v13.617c0,4.512,3.657,8.17,8.17,8.17s8.17-3.658,8.17-8.17v-13.617h23.012
		c6.236,18.566,9.764,37.865,10.529,57.543h-98.902v-33.033c0-4.512-3.657-8.17-8.17-8.17c-4.513,0-8.17,3.658-8.17,8.17v33.033
		h-107.61L281.585,190.286z M172.936,378.553c-4.506,0-8.17-3.665-8.17-8.17s3.665-8.17,8.17-8.17h59.915
		c13.516,0,24.511-10.995,24.511-24.511s-10.995-24.511-24.511-24.511H57.161c-4.561-15.701-7.309-32.125-7.977-49.021h413.62
		c-1.683,42.454-16.401,81.957-40.352,114.383H172.936z"/>
</g>
<g>
</g>
<g>
</g>
<g>
</g>
<g>
</g>
<g>
</g>
<g>
</g>
<g>
</g>
<g>
</g>
<g>
</g>
<g>
</g>
<g>
</g>
<g>
</g>
<g>
</g>
<g>
</g>
<g>
</g>
</svg>
