<?xml version="1.0" encoding="iso-8859-1"?>
<!-- Generator: Adobe Illustrator 19.0.0, SVG Export Plug-In . SVG Version: 6.00 Build 0)  -->
<svg version="1.1" id="Layer_1" xmlns="http://www.w3.org/2000/svg" xmlns:xlink="http://www.w3.org/1999/xlink" x="0px" y="0px"
	 viewBox="0 0 512 512" style="enable-background:new 0 0 512 512;" xml:space="preserve">
<circle style="fill:#4DE1FF;" cx="256" cy="256" r="247.83"/>
<path style="fill:#FFD170;" d="M256,185.304c-67.329,0-122.601,47.887-137.042,94.981v43.574h274.083v-43.574
	C378.601,233.192,323.329,185.304,256,185.304z"/>
<path style="fill:#096C80;" d="M42.327,281.13c17.051-0.539,32.081-10.322,41.533-25.13c9.726,15.237,25.378,25.183,43.053,25.183
	c17.662,0,33.269-9.946,43.009-25.183c9.755,15.237,25.378,25.183,43.038,25.183c17.676,0,33.283-9.946,43.024-25.183
	c9.726,15.237,25.378,25.183,43.038,25.183s33.284-9.946,43.024-25.183c9.755,15.237,25.378,25.183,43.038,25.183
	c17.662,0,33.284-9.946,43.024-25.183c9.453,14.809,24.511,24.591,41.564,25.13C457.187,387.966,366.133,471.149,256,471.149
	S54.813,387.966,42.327,281.13c17.053-0.539,32.11-10.322,41.564-25.13c9.74,15.237,25.363,25.183,43.024,25.183
	c17.661,0,33.283-9.946,43.039-25.183c9.74,15.237,25.364,25.183,43.024,25.183s33.313-9.946,43.039-25.183
	c9.741,15.237,25.348,25.183,43.024,25.183c17.662,0,33.284-9.946,43.038-25.183c9.74,15.237,25.347,25.183,43.009,25.183
	c17.676,0,33.327-9.946,43.053-25.183c9.452,14.809,24.482,24.591,41.533,25.13"/>
<g>
	<path style="fill:#03242B;" d="M437.019,74.981C388.667,26.628,324.38,0,256,0S123.333,26.628,74.981,74.981
		C26.628,123.332,0,187.62,0,256s26.628,132.668,74.981,181.019C123.333,485.372,187.62,512,256,512s132.667-26.628,181.019-74.981
		C485.372,388.668,512,324.38,512,256S485.372,123.332,437.019,74.981z M256,495.66c-132.149,0-239.66-107.51-239.66-239.66
		S123.851,16.34,256,16.34S495.66,123.851,495.66,256S388.149,495.66,256,495.66z"/>
	<path style="fill:#03242B;" d="M475.861,275.796c-1.493-1.732-3.644-2.759-5.929-2.831c-13.797-0.437-26.519-8.223-34.904-21.36
		c-1.501-2.351-4.098-3.775-6.887-3.775c-2.789,0-5.386,1.423-6.886,3.774c-5.911,9.258-13.906,15.822-22.916,19.076
		c-17.665-45.275-70.444-89.82-135.257-93.316V87.422c15.334,3.69,26.766,17.511,26.766,33.962c0,4.512,3.657,8.17,8.17,8.17
		c4.513,0,8.17-3.658,8.17-8.17c0-18.039-9.371-33.919-23.491-43.062c9.939,0.707,19.515,5.621,25.817,14.295
		c1.599,2.201,4.089,3.368,6.616,3.368c1.665,0,3.345-0.508,4.795-1.561c3.652-2.653,4.46-7.762,1.807-11.412
		c-10.598-14.588-27.507-21.936-44.3-21.04c8.453-5.263,19.081-6.911,29.272-3.6c4.288,1.394,8.901-0.953,10.294-5.245
		c1.394-4.291-0.954-8.9-5.245-10.294c-21.358-6.94-44.037,0.948-56.843,17.961c-12.807-17.014-35.488-24.898-56.843-17.961
		c-4.291,1.394-6.641,6.003-5.245,10.294c1.394,4.293,6.011,6.641,10.294,5.245c10.19-3.311,20.818-1.662,29.272,3.6
		c-16.793-0.897-33.702,6.452-44.3,21.04c-2.653,3.65-1.843,8.761,1.807,11.412c3.649,2.653,8.758,1.844,11.412-1.807
		c6.302-8.674,15.877-13.588,25.817-14.295c-14.12,9.143-23.491,25.024-23.491,43.062c0,4.512,3.657,8.17,8.17,8.17
		s8.17-3.658,8.17-8.17c0-16.45,11.432-30.272,26.766-33.962v89.943c-7.155,0.392-14.32,1.288-21.39,2.693
		c-4.426,0.879-7.3,5.18-6.422,9.606c0.88,4.425,5.182,7.303,9.606,6.421c8.717-1.732,17.591-2.61,26.375-2.61
		c59.629,0,108.959,38.823,126.655,79.358c-12.888-1.175-24.626-8.754-32.604-21.233c-1.501-2.348-4.095-3.768-6.88-3.769
		c-2.789,0-5.381,1.419-6.884,3.765c-8.715,13.612-21.894,21.418-36.158,21.418c-14.268,0-27.44-7.805-36.14-21.412
		c-1.502-2.349-4.097-3.769-6.884-3.769c-2.791,0.001-5.386,1.424-6.886,3.774c-8.687,13.605-21.862,21.408-36.153,21.408
		c-14.268,0-27.441-7.805-36.141-21.412c-1.501-2.348-4.095-3.768-6.88-3.769c-2.789,0-5.381,1.419-6.884,3.765
		c-8.448,13.194-21.093,20.911-34.853,21.373c12.126-27.709,38.904-53.523,70.852-67.565c4.131-1.816,6.008-6.636,4.192-10.767
		c-1.816-4.131-6.633-6.007-10.768-4.192c-37.447,16.462-67.652,46.422-80.72,79.489c-8.217-3.46-15.504-9.733-21-18.332
		c-1.501-2.349-4.097-3.769-6.884-3.769c-2.791,0.001-5.386,1.424-6.887,3.774c-8.386,13.139-21.119,20.924-34.935,21.361
		c-2.287,0.072-4.436,1.099-5.929,2.831c-1.494,1.732-2.193,4.011-1.927,6.283c6.303,53.93,32.185,103.722,72.879,140.207
		c41.021,36.775,93.904,57.029,148.907,57.029c49.283,0,96.048-15.814,135.239-45.734c3.587-2.739,4.275-7.865,1.536-11.452
		c-2.738-3.586-7.866-4.275-11.451-1.536c-36.318,27.726-79.654,42.382-125.323,42.382c-102.271,0-188.76-74.537-204.451-174.697
		c12.272-2.415,23.488-8.948,32.362-18.829c8.058,8.899,18.12,15.126,29.004,18.034c0.461,0.246,0.95,0.454,1.468,0.613
		c0.797,0.245,1.605,0.362,2.398,0.362c0.112,0,0.221-0.022,0.333-0.027c3.22,0.595,6.494,0.917,9.8,0.917
		c16.131,0,31.594-7.29,43.034-19.927c11.432,12.637,26.892,19.927,43.029,19.927c16.153,0,31.617-7.287,43.042-19.919
		c11.431,12.631,26.888,19.919,43.02,19.919c16.132,0,31.594-7.289,43.035-19.926c11.43,12.634,26.885,19.926,43.013,19.926
		c16.151,0,31.611-7.278,43.035-19.896c8.867,9.875,20.068,16.406,32.322,18.822c-6.584,41.587-26.153,80.881-55.632,111.407
		c-3.134,3.245-3.044,8.419,0.203,11.553c3.246,3.134,8.42,3.045,11.553-0.202c33.857-35.061,55.599-80.86,61.22-128.958
		C478.054,279.807,477.355,277.529,475.861,275.796z"/>
	<path style="fill:#03242B;" d="M185.722,338.373c-4.513,0-8.17,3.658-8.17,8.17c0,4.512,3.657,8.17,8.17,8.17h10.894
		c4.513,0,8.17-3.658,8.17-8.17c0-4.512-3.657-8.17-8.17-8.17H185.722z"/>
	<path style="fill:#03242B;" d="M121.475,305.692c-4.513,0-8.17,3.658-8.17,8.17c0,4.512,3.657,8.17,8.17,8.17h10.894
		c4.513,0,8.17-3.658,8.17-8.17c0-4.512-3.657-8.17-8.17-8.17H121.475z"/>
	<path style="fill:#03242B;" d="M390.533,305.692h-10.894c-4.513,0-8.17,3.658-8.17,8.17c0,4.512,3.657,8.17,8.17,8.17h10.894
		c4.513,0,8.17-3.658,8.17-8.17C398.703,309.35,395.046,305.692,390.533,305.692z"/>
</g>
<g>
</g>
<g>
</g>
<g>
</g>
<g>
</g>
<g>
</g>
<g>
</g>
<g>
</g>
<g>
</g>
<g>
</g>
<g>
</g>
<g>
</g>
<g>
</g>
<g>
</g>
<g>
</g>
<g>
</g>
</svg>
