<?xml version="1.0" encoding="iso-8859-1"?>
<!-- Generator: Adobe Illustrator 19.0.0, SVG Export Plug-In . SVG Version: 6.00 Build 0)  -->
<svg version="1.1" id="Layer_1" xmlns="http://www.w3.org/2000/svg" xmlns:xlink="http://www.w3.org/1999/xlink" x="0px" y="0px"
	 viewBox="0 0 512 512" style="enable-background:new 0 0 512 512;" xml:space="preserve">
<circle style="fill:#FFC6C2;" cx="256" cy="256" r="247.83"/>
<path style="fill:#FFD170;" d="M43.086,272.362h-1.608c1.285,17.002,4.558,33.455,9.581,49.133l23.865,50.553
	c5.735,8.916,12.103,17.391,19.053,25.345l117.922-91.009C158.977,284.441,101.743,272.649,43.086,272.362z"/>
<g>
	<path style="fill:#FF984C;" d="M74.924,372.049c14.599,1.416,28.928,3.746,42.943,6.908l48.44-37.384
		c-36.368-12.083-75.065-19.065-115.246-20.077C56.824,339.486,64.893,356.454,74.924,372.049z"/>
	<path style="fill:#FF984C;" d="M211.898,306.385L256,272.35c-64.377-31.068-136.49-48.636-212.674-49.008
		c-1.63,10.652-2.475,21.557-2.475,32.658c0,5.506,0.219,10.96,0.627,16.362h1.608C101.743,272.649,158.977,284.441,211.898,306.385
		z"/>
</g>
<polygon style="fill:#FFFFFF;" points="384,161.669 351.319,178.009 351.319,237.924 416.681,237.924 416.681,178.009 "/>
<path style="fill:#FF984C;" d="M468.914,272.362c-130.049,0.636-253.118,57.807-337.651,156.855v1.955
	c13.2,9.421,27.498,17.398,42.671,23.683l53.98,14.453c9.195,1.205,18.567,1.842,28.086,1.842
	c75.927,0,142.794-39.536,181.097-99.103l23.847-50.551c5.031-15.669,8.298-32.129,9.584-49.133h-1.614V272.362z"/>
<g>
	<path style="fill:#FF6E36;" d="M227.914,469.307c55.183-53.768,128.112-89.4,209.182-97.26
		c10.025-15.59,18.091-32.553,23.853-50.538c-114.118,2.862-216.286,53.814-287.015,133.346
		C190.948,461.9,209.047,466.835,227.914,469.307z"/>
	<path style="fill:#FF6E36;" d="M131.264,429.217c84.533-99.047,207.602-156.219,337.651-156.855h1.613
		c0.409-5.402,0.621-10.858,0.621-16.362c0-11.101-0.845-22.006-2.475-32.659c-150.023,0.734-284.283,68.112-374.698,174.053
		c11.058,12.656,23.58,23.995,37.287,33.779v-1.955H131.264z"/>
</g>
<circle style="fill:#FF8C84;" cx="256" cy="84.426" r="43.574"/>
<g>
	<path style="fill:#03242B;" d="M478.701,272.357c0.394-5.418,0.618-10.87,0.618-16.357c0-11.344-0.864-22.746-2.568-33.891
		c-0.611-3.991-4.043-6.935-8.077-6.935c-14.726,0.072-29.331,0.794-43.824,2.128v-26.144c0.891,0.316,1.809,0.471,2.717,0.471
		c2.997,0,5.883-1.656,7.314-4.518c2.019-4.036,0.382-8.944-3.654-10.961l-43.574-21.787c-2.3-1.15-5.008-1.15-7.307,0
		l-43.574,21.787c-4.036,2.018-5.672,6.925-3.654,10.961c1.865,3.731,6.197,5.405,10.031,4.043v40.526
		c-95.455,25.06-182.301,77.885-249.038,153.13c-5.2-6.521-10.013-13.36-14.408-20.487c1.915,0.207,3.821,0.425,5.71,0.66
		c0.343,0.042,0.683,0.064,1.021,0.064c4.062,0,7.582-3.026,8.097-7.161c0.558-4.477-2.62-8.559-7.097-9.118
		c-5.667-0.706-11.463-1.285-17.286-1.739c-4.415-8.977-8.196-18.318-11.29-27.964c21.93,0.975,43.769,3.72,65.072,8.216
		c0.569,0.12,1.135,0.178,1.695,0.178c3.78,0,7.175-2.638,7.986-6.485c0.931-4.415-1.892-8.749-6.307-9.681
		c-23.882-5.039-48.409-7.957-73.001-8.741c-2.059-8.922-3.525-18.066-4.385-27.383c39.793,0.8,79.1,6.856,116.967,18.049
		c0.772,0.229,1.552,0.338,2.319,0.338c3.526,0,6.781-2.302,7.831-5.856c1.279-4.327-1.192-8.872-5.52-10.151
		c-39.643-11.716-80.8-18.009-122.457-18.74c-0.014-0.937-0.037-1.87-0.037-2.808c0-8.15,0.48-16.331,1.431-24.405
		c56.402,1.085,111.471,11.718,163.798,31.638c4.219,1.608,8.938-0.512,10.543-4.729c1.606-4.217-0.512-8.937-4.729-10.543
		c-56.379-21.463-115.829-32.497-176.698-32.794c-4.073,0-7.506,2.945-8.116,6.935c-1.706,11.146-2.57,22.551-2.57,33.898
		c0,19.636,2.558,38.683,7.339,56.837c13.344,50.666,44.088,94.341,85.428,124.232c0.038,0.028,0.076,0.057,0.115,0.084
		c36.722,26.516,81.784,42.166,130.437,42.166c32.024,0,62.965-6.67,91.964-19.825c4.109-1.864,5.929-6.706,4.064-10.816
		c-1.863-4.108-6.704-5.928-10.816-4.064C314.349,456.8,285.681,462.979,256,462.979c-2.996,0-5.972-0.078-8.937-0.205
		c48.736-42.6,108.966-70.606,172.737-80.322c-14.032,18.122-31.18,34.07-51.033,47.022c-3.779,2.465-4.844,7.527-2.379,11.306
		c1.566,2.402,4.182,3.707,6.851,3.707c1.531,0,3.08-0.43,4.457-1.328c58.695-38.291,95.546-100.794,100.916-169.656
		C478.664,273.127,478.7,272.747,478.701,272.357z M359.489,183.059L384,170.803l24.511,12.255v36.011
		c-5.466,0.683-10.913,1.458-16.34,2.317v-16.143c0-4.512-3.658-8.17-8.17-8.17c-4.512,0-8.17,3.658-8.17,8.17v19.01
		c-5.471,1.052-10.919,2.192-16.34,3.424V183.059z M104.888,397.279c90.506-102.963,219.75-163.002,356.659-165.678
		c0.951,8.073,1.431,16.251,1.431,24.398c0,2.764-0.074,5.515-0.183,8.262c-58.219,1.04-114.734,12.941-168.099,35.425
		c-4.158,1.752-6.109,6.543-4.357,10.702c1.316,3.122,4.344,5,7.533,5c1.058,0,2.133-0.207,3.169-0.643
		c50.953-21.468,104.89-32.925,160.461-34.114c-1.334,11.201-3.556,22.197-6.647,32.891
		c-54.883,2.157-107.737,15.106-157.189,38.527c-47.795,22.636-90.097,53.929-125.862,93.015
		c-10.282-4.597-20.119-10.012-29.437-16.156c36.681-41.576,80.228-75.414,129.586-100.63c4.018-2.052,5.611-6.974,3.559-10.993
		c-2.052-4.019-6.975-5.612-10.993-3.559c-51.686,26.404-97.22,61.93-135.489,105.618
		C120.414,412.631,112.343,405.248,104.888,397.279z M225.129,460.675c-12.763-1.917-25.146-5.01-37.04-9.153
		c68.227-72.114,162.231-115.798,261.164-121.366c-4.571,11.902-10.233,23.344-16.915,34.187
		C354.972,372.738,281.689,406.807,225.129,460.675z"/>
	<path style="fill:#03242B;" d="M437.019,74.981C388.668,26.628,324.38,0,256,0S123.332,26.628,74.981,74.981
		C26.628,123.332,0,187.62,0,256s26.628,132.668,74.981,181.019C123.332,485.372,187.62,512,256,512s132.668-26.628,181.019-74.981
		C485.372,388.668,512,324.38,512,256S485.372,123.332,437.019,74.981z M256,495.66c-132.149,0-239.66-107.51-239.66-239.66
		S123.851,16.34,256,16.34S495.66,123.851,495.66,256S388.149,495.66,256,495.66z"/>
	<path style="fill:#03242B;" d="M256,136.17c28.531,0,51.745-23.213,51.745-51.745S284.531,32.681,256,32.681
		s-51.745,23.213-51.745,51.745S227.469,136.17,256,136.17z M256,49.021c19.521,0,35.404,15.883,35.404,35.404
		S275.521,119.83,256,119.83c-19.521,0-35.404-15.883-35.404-35.404S236.479,49.021,256,49.021z"/>
</g>
<g>
</g>
<g>
</g>
<g>
</g>
<g>
</g>
<g>
</g>
<g>
</g>
<g>
</g>
<g>
</g>
<g>
</g>
<g>
</g>
<g>
</g>
<g>
</g>
<g>
</g>
<g>
</g>
<g>
</g>
</svg>
