<?xml version="1.0" encoding="iso-8859-1"?>
<!-- Generator: Adobe Illustrator 19.0.0, SVG Export Plug-In . SVG Version: 6.00 Build 0)  -->
<svg version="1.1" id="Layer_1" xmlns="http://www.w3.org/2000/svg" xmlns:xlink="http://www.w3.org/1999/xlink" x="0px" y="0px"
	 viewBox="0 0 512 512" style="enable-background:new 0 0 512 512;" xml:space="preserve">
<circle style="fill:#4DE1FF;" cx="256" cy="256" r="247.83"/>
<path style="fill:#2DB8D4;" d="M469.682,230.868c-17.051-0.539-32.088-10.321-41.542-25.129
	c-9.726,15.237-25.378,25.183-43.053,25.183c-17.662,0-33.269-9.946-43.009-25.183c-9.755,15.237-25.378,25.183-43.039,25.183
	c-17.676,0-33.283-9.946-43.024-25.183c-9.726,15.237-25.378,25.183-43.038,25.183s-33.284-9.946-43.024-25.183
	c-9.755,15.237-25.378,25.183-43.038,25.183c-17.662,0-33.284-9.946-43.024-25.183c-9.453,14.809-24.518,24.591-41.572,25.129
	c-0.963,8.245-1.466,16.631-1.466,25.132c0,13.718,1.306,27.135,3.772,40.146L256,356.413l202.451-27.586
	c8.211-22.756,12.698-47.276,12.698-72.827C471.149,247.5,470.646,239.114,469.682,230.868z"/>
<path style="fill:#FFE1A0;" d="M256.014,312.487c0-9.024-7.316-16.34-16.34-16.34H44.624
	C63.483,395.658,151.085,471.149,256,471.149c93.083,0,172.539-59.423,202.451-142.322H272.356
	C263.33,328.827,256.014,321.511,256.014,312.487z"/>
<path style="fill:#FFC240;" d="M272.355,328.827c-9.024,0-16.34-7.316-16.34-16.34s-7.316-16.34-16.34-16.34H44.624
	c2.128,11.225,5.137,22.141,8.94,32.681H272.355z"/>
<g>
	<path style="fill:#FFFFFF;" d="M225.91,148.062c0-17.139-13.894-31.032-31.032-31.032c-2.569,0-5.064,0.315-7.452,0.903
		c-4.164-16.303-18.947-28.359-36.548-28.359s-32.386,12.056-36.548,28.359c-2.388-0.588-4.883-0.903-7.452-0.903
		c-17.139,0-31.032,13.894-31.032,31.032H225.91z"/>
	<path style="fill:#FFFFFF;" d="M409.018,129.921c-3.235,0-6.378,0.395-9.385,1.137c-5.243-20.532-23.861-35.714-46.027-35.714
		s-40.784,15.182-46.027,35.714c-3.007-0.742-6.149-1.137-9.385-1.137c-21.582,0-39.08,17.496-39.08,39.08h188.982
		C448.098,147.417,430.602,129.921,409.018,129.921z"/>
</g>
<circle style="fill:#FFD170;" cx="256" cy="73.532" r="32.681"/>
<g>
	<path style="fill:#03242B;" d="M437.019,74.981C388.668,26.628,324.38,0,256,0S123.332,26.628,74.981,74.981
		C26.628,123.332,0,187.62,0,256s26.628,132.668,74.981,181.019C123.332,485.372,187.62,512,256,512s132.668-26.628,181.019-74.981
		C485.372,388.668,512,324.38,512,256S485.372,123.332,437.019,74.981z M256,495.66c-132.149,0-239.66-107.51-239.66-239.66
		S123.851,16.34,256,16.34S495.66,123.851,495.66,256S388.149,495.66,256,495.66z"/>
	<path style="fill:#03242B;" d="M326.278,288.112h-10.894c-4.512,0-8.17,3.658-8.17,8.17c0,4.512,3.658,8.17,8.17,8.17h10.894
		c4.512,0,8.17-3.658,8.17-8.17C334.448,291.77,330.79,288.112,326.278,288.112z"/>
	<path style="fill:#03242B;" d="M312.661,263.602c0-4.512-3.658-8.17-8.17-8.17h-10.894c-4.512,0-8.17,3.658-8.17,8.17
		c0,4.512,3.658,8.17,8.17,8.17h10.894C309.003,271.772,312.661,268.114,312.661,263.602z"/>
	<path style="fill:#03242B;" d="M390.525,255.431h-10.894c-4.512,0-8.17,3.658-8.17,8.17c0,4.512,3.658,8.17,8.17,8.17h10.894
		c4.512,0,8.17-3.658,8.17-8.17C398.695,259.089,395.037,255.431,390.525,255.431z"/>
	<path style="fill:#03242B;" d="M132.361,255.431h-10.894c-4.512,0-8.17,3.658-8.17,8.17c0,4.512,3.658,8.17,8.17,8.17h10.894
		c4.512,0,8.17-3.658,8.17-8.17C140.531,259.089,136.874,255.431,132.361,255.431z"/>
	<path style="fill:#03242B;" d="M466.43,330.605c8.455-23.785,12.889-49.002,12.889-74.605c0-8.662-0.512-17.435-1.523-26.08
		c-0.47-4.02-3.812-7.09-7.857-7.217c-13.801-0.436-26.527-8.221-34.913-21.359c-1.5-2.352-4.097-3.775-6.887-3.775
		c-2.79,0-5.386,1.423-6.887,3.774c-8.684,13.605-21.867,21.408-36.167,21.408c-14.259,0-27.426-7.805-36.125-21.412
		c-1.501-2.348-4.095-3.768-6.881-3.769c-2.788,0-5.381,1.419-6.884,3.765c-8.715,13.612-21.894,21.418-36.158,21.418
		c-14.268,0-27.44-7.805-36.14-21.412c-1.501-2.349-4.097-3.769-6.884-3.769c-2.791,0.001-5.386,1.424-6.887,3.774
		c-8.685,13.605-21.861,21.408-36.152,21.408c-14.268,0-27.441-7.805-36.141-21.412c-1.501-2.348-4.095-3.768-6.882-3.769
		c-2.788,0-5.381,1.419-6.884,3.765c-8.715,13.612-21.893,21.418-36.157,21.418c-14.268,0-27.44-7.805-36.14-21.413
		c-1.501-2.349-4.097-3.769-6.884-3.769c-2.791,0.001-5.386,1.424-6.887,3.774c-8.386,13.138-21.123,20.923-34.943,21.36
		c-4.045,0.127-7.387,3.198-7.856,7.217c-1.01,8.643-1.522,17.418-1.522,26.078c0,14.152,1.339,27.994,3.867,41.422
		c0.032,0.2,0.069,0.4,0.114,0.596C56.377,401.137,147.222,479.319,256,479.319c53.286,0,104.92-19.159,145.392-53.948
		c3.422-2.941,3.812-8.1,0.869-11.522c-2.942-3.422-8.1-3.811-11.522-0.869c-37.508,32.243-85.359,50-134.739,50
		c-85.347,0-158.788-51.928-190.405-125.845h95.178c4.512,0,8.17-3.658,8.17-8.17s-3.658-8.17-8.17-8.17H59.42
		c-1.783-5.398-3.35-10.894-4.691-16.477h184.945c4.506,0,8.17,3.665,8.17,8.17c0,13.516,10.995,24.511,24.511,24.511h174.052
		c-8.261,19.372-19.487,37.525-33.427,53.743c-2.941,3.422-2.552,8.58,0.869,11.522c3.424,2.941,8.581,2.552,11.522-0.869
		c17.63-20.509,31.237-43.888,40.379-68.893C466.051,331.905,466.282,331.272,466.43,330.605z M272.355,320.657
		c-4.505,0-8.17-3.665-8.17-8.17c0-13.516-10.995-24.511-24.511-24.511H51.493c-1.623-10.425-2.472-21.103-2.472-31.976
		c0-5.86,0.253-11.777,0.754-17.662c12.964-2.116,24.835-8.793,34.134-19.146c11.428,12.619,26.879,19.899,43.004,19.899
		c16.131,0,31.594-7.289,43.034-19.927c11.432,12.637,26.891,19.927,43.029,19.927c16.153,0,31.617-7.287,43.042-19.919
		c11.431,12.631,26.888,19.919,43.02,19.919c16.131,0,31.594-7.289,43.035-19.926c11.43,12.635,26.884,19.926,43.013,19.926
		c16.152,0,31.612-7.278,43.035-19.896c9.293,10.349,21.153,17.025,34.102,19.14c0.502,5.887,0.755,11.803,0.755,17.664
		c0,22.125-3.575,43.938-10.411,64.657H272.355z"/>
	<path style="fill:#03242B;" d="M234.304,328.963c0-4.512-3.658-8.17-8.17-8.17h-32.681c-4.512,0-8.17,3.658-8.17,8.17
		s3.658,8.17,8.17,8.17h32.681C230.646,337.133,234.304,333.475,234.304,328.963z"/>
	<path style="fill:#03242B;" d="M75.845,156.232H225.91c4.512,0,8.17-3.658,8.17-8.17c0-21.616-17.587-39.202-39.202-39.202
		c-0.646,0-1.293,0.016-1.938,0.048c-7.193-16.501-23.578-27.504-42.062-27.504s-34.869,11.004-42.062,27.504
		c-0.645-0.032-1.292-0.048-1.938-0.048c-21.616,0-39.202,17.587-39.202,39.202C67.674,152.574,71.331,156.232,75.845,156.232z
		 M106.876,125.2c1.856,0,3.705,0.224,5.496,0.666c4.356,1.076,8.763-1.564,9.873-5.911c3.34-13.077,15.114-22.211,28.633-22.211
		s25.293,9.133,28.633,22.211c1.11,4.348,5.52,6.987,9.873,5.911c1.791-0.441,3.64-0.666,5.496-0.666
		c9.729,0,18.058,6.108,21.354,14.691H85.523C88.818,131.308,97.147,125.2,106.876,125.2z"/>
	<path style="fill:#03242B;" d="M250.945,169c0,4.512,3.658,8.17,8.17,8.17h107.837c4.512,0,8.17-3.658,8.17-8.17
		s-3.658-8.17-8.17-8.17h-98.571c3.592-13.092,15.598-22.739,29.814-22.739c2.507,0,5.007,0.303,7.429,0.9
		c4.353,1.071,8.761-1.565,9.872-5.912c4.446-17.407,20.117-29.565,38.111-29.565s33.666,12.157,38.11,29.565
		c1.11,4.347,5.521,6.984,9.872,5.912c2.424-0.597,4.924-0.9,7.431-0.9c14.216,0,26.221,9.647,29.814,22.739h-39.199
		c-4.512,0-8.17,3.658-8.17,8.17s3.658,8.17,8.17,8.17H448.1c4.512,0,8.17-3.658,8.17-8.17c0-26.054-21.197-47.25-47.25-47.25
		c-1.271,0-2.543,0.051-3.81,0.154c-8.403-20.772-28.672-34.73-51.602-34.73c-22.93,0-43.198,13.958-51.603,34.73
		c-1.266-0.102-2.537-0.154-3.81-0.154C272.142,121.75,250.945,142.947,250.945,169z"/>
	<path style="fill:#03242B;" d="M256,114.383c22.526,0,40.851-18.325,40.851-40.851S278.526,32.681,256,32.681
		c-22.526,0-40.851,18.325-40.851,40.851S233.474,114.383,256,114.383z M256,49.021c13.516,0,24.511,10.995,24.511,24.511
		S269.516,98.043,256,98.043s-24.511-10.995-24.511-24.511S242.484,49.021,256,49.021z"/>
	<circle style="fill:#03242B;" cx="210.846" cy="416.496" r="8.17"/>
	<circle style="fill:#03242B;" cx="178.165" cy="385.993" r="8.17"/>
</g>
<g>
</g>
<g>
</g>
<g>
</g>
<g>
</g>
<g>
</g>
<g>
</g>
<g>
</g>
<g>
</g>
<g>
</g>
<g>
</g>
<g>
</g>
<g>
</g>
<g>
</g>
<g>
</g>
<g>
</g>
</svg>
