<?xml version="1.0" encoding="iso-8859-1"?>
<!-- Generator: Adobe Illustrator 19.0.0, SVG Export Plug-In . SVG Version: 6.00 Build 0)  -->
<svg version="1.1" id="Layer_1" xmlns="http://www.w3.org/2000/svg" xmlns:xlink="http://www.w3.org/1999/xlink" x="0px" y="0px"
	 viewBox="0 0 512 512" style="enable-background:new 0 0 512 512;" xml:space="preserve">
<circle style="fill:#4DE1FF;" cx="256" cy="256" r="247.83"/>
<path style="fill:#9FC657;" d="M40.851,256c0,72.69,36.054,136.955,91.248,175.904h69.433V256H40.851z"/>
<path style="fill:#7FB21E;" d="M471.149,256H310.468v175.904h69.433C435.095,392.955,471.149,328.69,471.149,256z"/>
<path style="fill:#096C80;" d="M201.532,256l-69.433,175.904c35.031,24.719,77.767,39.245,123.901,39.245
	s88.87-14.527,123.901-39.245L310.468,256H201.532z"/>
<path style="fill:#405A0F;" d="M167.842,122.506c-10.529,0-19.064,8.535-19.064,19.064v62.685c0,10.529,8.535,19.064,19.064,19.064
	s19.064-8.535,19.064-19.064V141.57C186.906,131.041,178.371,122.506,167.842,122.506z"/>
<g>
	<path style="fill:#557714;" d="M97.034,122.506c-10.529,0-19.064,8.535-19.064,19.064v62.685c0,10.529,8.535,19.064,19.064,19.064
		s19.064-8.535,19.064-19.064V141.57C116.098,131.041,107.562,122.506,97.034,122.506z"/>
	<path style="fill:#557714;" d="M344.158,122.506c10.529,0,19.064,8.535,19.064,19.064v62.685c0,10.529-8.535,19.064-19.064,19.064
		c-10.529,0-19.064-8.535-19.064-19.064V141.57C325.094,131.041,333.629,122.506,344.158,122.506z"/>
</g>
<path style="fill:#405A0F;" d="M414.966,122.506c10.529,0,19.064,8.535,19.064,19.064v62.685c0,10.529-8.535,19.064-19.064,19.064
	s-19.064-8.535-19.064-19.064V141.57C395.902,131.041,404.438,122.506,414.966,122.506z"/>
<circle style="fill:#FFD170;" cx="256" cy="84.426" r="43.574"/>
<g>
	
		<line style="fill:none;stroke:#FFFFFF;stroke-width:15;stroke-linecap:round;stroke-linejoin:round;stroke-miterlimit:10;" x1="256" y1="316.819" x2="256" y2="288.681"/>
	
		<line style="fill:none;stroke:#FFFFFF;stroke-width:15;stroke-linecap:round;stroke-linejoin:round;stroke-miterlimit:10;" x1="256" y1="438.468" x2="256" y2="410.33"/>
	
		<line style="fill:none;stroke:#FFFFFF;stroke-width:15;stroke-linecap:round;stroke-linejoin:round;stroke-miterlimit:10;" x1="256" y1="377.649" x2="256" y2="349.5"/>
</g>
<g>
	<path style="fill:#03242B;" d="M437.019,74.981C388.667,26.628,324.38,0,256,0S123.332,26.628,74.981,74.981
		C26.628,123.332,0,187.62,0,256s26.628,132.668,74.981,181.019C123.332,485.372,187.62,512,256,512s132.667-26.628,181.019-74.981
		C485.372,388.668,512,324.38,512,256S485.372,123.332,437.019,74.981z M256,495.66c-132.149,0-239.66-107.51-239.66-239.66
		S123.851,16.34,256,16.34S495.66,123.851,495.66,256S388.149,495.66,256,495.66z"/>
	<path style="fill:#03242B;" d="M256,324.993c4.513,0,8.17-3.658,8.17-8.17v-28.141c0-4.512-3.657-8.17-8.17-8.17
		c-4.512,0-8.17,3.658-8.17,8.17v28.141C247.83,321.336,251.488,324.993,256,324.993z"/>
	<path style="fill:#03242B;" d="M247.83,438.468c0,4.512,3.658,8.17,8.17,8.17c4.513,0,8.17-3.658,8.17-8.17v-28.142
		c0-4.512-3.657-8.17-8.17-8.17c-4.512,0-8.17,3.658-8.17,8.17V438.468z"/>
	<path style="fill:#03242B;" d="M247.83,377.646c0,4.512,3.658,8.17,8.17,8.17c4.513,0,8.17-3.658,8.17-8.17v-28.141
		c0-4.512-3.657-8.17-8.17-8.17c-4.512,0-8.17,3.658-8.17,8.17V377.646z"/>
	<path style="fill:#03242B;" d="M387.733,288.681c0-4.512-3.657-8.17-8.17-8.17s-8.17,3.658-8.17,8.17v10.894
		c0,4.512,3.657,8.17,8.17,8.17s8.17-3.658,8.17-8.17V288.681z"/>
	<path style="fill:#03242B;" d="M420.414,332.255v-10.894c0-4.512-3.657-8.17-8.17-8.17c-4.513,0-8.17,3.658-8.17,8.17v10.894
		c0,4.512,3.657,8.17,8.17,8.17C416.757,340.426,420.414,336.767,420.414,332.255z"/>
	<path style="fill:#03242B;" d="M137.885,350.184V339.29c0-4.512-3.658-8.17-8.17-8.17s-8.17,3.658-8.17,8.17v10.894
		c0,4.512,3.658,8.17,8.17,8.17S137.885,354.697,137.885,350.184z"/>
	<path style="fill:#03242B;" d="M256,136.17c28.531,0,51.745-23.213,51.745-51.745S284.531,32.681,256,32.681
		s-51.745,23.213-51.745,51.745S227.469,136.17,256,136.17z M256,49.021c19.522,0,35.404,15.883,35.404,35.404
		S275.522,119.83,256,119.83c-19.521,0-35.404-15.883-35.404-35.404S236.479,49.021,256,49.021z"/>
	<path style="fill:#03242B;" d="M471.149,247.83h-48.011v-17.594c11.037-3.478,19.064-13.809,19.064-25.98v-62.684
		c0-15.017-12.217-27.234-27.234-27.234c-15.017,0-27.234,12.217-27.234,27.234v62.684c0,12.171,8.026,22.502,19.064,25.98v17.594
		h-54.468v-17.594c11.037-3.478,19.064-13.809,19.064-25.98v-62.684c0-15.017-12.217-27.234-27.234-27.234
		c-15.017,0-27.234,12.217-27.234,27.234v62.684c0,12.171,8.026,22.502,19.064,25.98v17.594h-25.318c-0.025,0-134.658,0-134.658,0
		v-17.594c11.037-3.478,19.064-13.809,19.064-25.98v-62.684c0-15.017-12.217-27.234-27.234-27.234s-27.234,12.217-27.234,27.234
		v62.684c0,12.171,8.026,22.502,19.064,25.98v17.594h-54.468v-17.594c11.037-3.478,19.064-13.809,19.064-25.98v-62.684
		c0-15.017-12.217-27.234-27.234-27.234S69.8,126.554,69.8,141.571v62.684c0,12.171,8.026,22.502,19.064,25.98v17.594H40.851
		c-4.512,0-8.17,3.658-8.17,8.17c0,24.569,3.988,48.738,11.854,71.834c1.454,4.271,6.096,6.554,10.369,5.1
		c4.271-1.454,6.555-6.097,5.1-10.369c-6.414-18.833-10.045-38.438-10.823-58.395h140.344l-52.58,133.21
		c-1.657,4.197,0.403,8.943,4.6,10.598c0.985,0.389,1.999,0.573,2.997,0.573c3.256,0,6.334-1.96,7.602-5.173l54.948-139.21h97.818
		l54.951,139.214c1.268,3.213,4.345,5.173,7.603,5.173c0.998,0,2.013-0.184,2.998-0.573c4.197-1.657,6.256-6.402,4.6-10.599
		L322.477,264.17H462.82C458.512,374.525,367.39,462.979,256,462.979c-77.34,0-147.695-42.733-183.609-111.523
		c-2.088-3.999-7.023-5.549-11.024-3.461c-3.999,2.088-5.549,7.024-3.461,11.024c38.741,74.204,114.646,120.3,198.094,120.3
		c123.138,0,223.319-100.18,223.319-223.319C479.319,251.488,475.662,247.83,471.149,247.83z M404.074,141.571
		c0-6.007,4.887-10.894,10.894-10.894s10.894,4.887,10.894,10.894v62.684c0,6.007-4.887,10.894-10.894,10.894
		s-10.894-4.887-10.894-10.894V141.571z M333.265,141.571c0-6.007,4.887-10.894,10.894-10.894c6.007,0,10.894,4.887,10.894,10.894
		v62.684c0,6.007-4.887,10.894-10.894,10.894c-6.007,0-10.894-4.887-10.894-10.894V141.571z M156.949,141.571
		c0-6.007,4.887-10.894,10.894-10.894s10.894,4.887,10.894,10.894v62.684c0,6.007-4.887,10.894-10.894,10.894
		s-10.894-4.887-10.894-10.894V141.571z M86.14,141.571c0-6.007,4.887-10.894,10.894-10.894s10.894,4.887,10.894,10.894v62.684
		c0,6.007-4.887,10.894-10.894,10.894s-10.894-4.887-10.894-10.894V141.571z"/>
</g>
<g>
</g>
<g>
</g>
<g>
</g>
<g>
</g>
<g>
</g>
<g>
</g>
<g>
</g>
<g>
</g>
<g>
</g>
<g>
</g>
<g>
</g>
<g>
</g>
<g>
</g>
<g>
</g>
<g>
</g>
</svg>
