<?xml version="1.0" encoding="iso-8859-1"?>
<!-- Generator: Adobe Illustrator 19.0.0, SVG Export Plug-In . SVG Version: 6.00 Build 0)  -->
<svg version="1.1" id="Layer_1" xmlns="http://www.w3.org/2000/svg" xmlns:xlink="http://www.w3.org/1999/xlink" x="0px" y="0px"
	 viewBox="0 0 512 512" style="enable-background:new 0 0 512 512;" xml:space="preserve">
<circle style="fill:#FFD170;" cx="256" cy="256" r="247.83"/>
<path style="fill:#FF6E36;" d="M42.32,281.13C54.768,388.111,145.679,471.149,256,471.149s201.232-83.038,213.68-190.018H42.32z"/>
<path style="fill:#7FB21E;" d="M427.574,264.79v-43.574c0-9.024-7.316-16.34-16.34-16.34c-9.024,0-16.34,7.316-16.34,16.34v43.574
	c0,9.01-7.33,16.34-16.34,16.34h-27.234V79.599c0-9.024-7.316-16.34-16.34-16.34c-9.024,0-16.34,7.316-16.34,16.34v136.17h-27.234
	c-9.01,0-16.342-7.33-16.342-16.34v-43.574c0-9.024-7.315-16.34-16.34-16.34c-9.024,0-16.34,7.316-16.34,16.34v43.574
	c0,27.03,21.991,49.021,49.021,49.021h27.234v213.426c11.317-3.439,22.238-7.788,32.681-12.958V313.811h27.234
	C405.583,313.811,427.574,291.82,427.574,264.79z"/>
<g>
	<path style="fill:#03242B;" d="M437.019,74.981C388.667,26.628,324.38,0,256,0S123.332,26.628,74.981,74.981
		C26.628,123.332,0,187.62,0,256s26.628,132.668,74.981,181.019C123.332,485.372,187.62,512,256,512s132.667-26.628,181.019-74.981
		C485.372,388.668,512,324.38,512,256S485.372,123.332,437.019,74.981z M256,495.66c-132.149,0-239.66-107.51-239.66-239.66
		S123.851,16.34,256,16.34S495.66,123.851,495.66,256S388.149,495.66,256,495.66z"/>
	<circle style="fill:#03242B;" cx="247.83" cy="330.393" r="8.17"/>
	<circle style="fill:#03242B;" cx="141.072" cy="363.073" r="8.17"/>
	<circle style="fill:#03242B;" cx="108.391" cy="330.393" r="8.17"/>
	<path style="fill:#03242B;" d="M475.777,275.699c-1.55-1.742-3.771-2.739-6.104-2.739h-12.228c-4.513,0-8.17,3.658-8.17,8.17
		c0,4.512,3.657,8.17,8.17,8.17h2.843c-9.942,61.423-46.822,114.702-100.799,145.9v-113.22h19.064
		c31.535,0,57.191-25.656,57.191-57.191v-19.064h2.723c4.513,0,8.17-3.658,8.17-8.17c0-4.512-3.657-8.17-8.17-8.17h-2.723v-8.17
		c0-13.516-10.996-24.511-24.511-24.511c-13.515,0-24.511,10.995-24.511,24.511v19.064H384c-4.513,0-8.17,3.658-8.17,8.17
		c0,4.512,3.657,8.17,8.17,8.17h2.723v8.17c0,4.506-3.665,8.17-8.17,8.17h-19.064V153.13h2.723c4.513,0,8.17-3.658,8.17-8.17
		s-3.657-8.17-8.17-8.17h-2.723v-16.34h2.723c4.513,0,8.17-3.658,8.17-8.17c0-4.512-3.657-8.17-8.17-8.17h-2.723V79.599
		c0-13.516-10.996-24.511-24.511-24.511c-13.515,0-24.511,10.996-24.511,24.511v40.851h-2.723c-4.513,0-8.17,3.658-8.17,8.17
		s3.657,8.17,8.17,8.17h2.723v70.809h-19.064c-4.506,0-8.171-3.665-8.171-8.17v-43.574c0-13.516-10.995-24.511-24.51-24.511
		c-13.516,0-24.511,10.995-24.511,24.511v8.17h-2.723c-4.512,0-8.17,3.658-8.17,8.17c0,4.512,3.658,8.17,8.17,8.17h2.723v19.064
		c0,31.536,25.656,57.191,57.191,57.191h19.064v103.489h-2.723c-4.513,0-8.17,3.658-8.17,8.17c0,4.512,3.657,8.17,8.17,8.17h2.723
		v16.34h-2.723c-4.513,0-8.17,3.658-8.17,8.17c0,4.512,3.657,8.17,8.17,8.17h2.723v46.564c-17.702,4.836-35.995,7.285-54.468,7.285
		c-45.683,0-89.023-14.652-125.331-42.372c-3.586-2.739-8.714-2.05-11.452,1.536c-2.739,3.586-2.05,8.714,1.536,11.452
		c39.182,29.913,85.95,45.724,135.248,45.724c22.11,0,43.986-3.253,65.022-9.667c3.438-1.048,5.788-4.221,5.788-7.815V248.45
		c0-4.512-3.657-8.17-8.17-8.17h-27.234c-22.526,0-40.851-18.325-40.851-40.851v-43.574c0-4.506,3.666-8.17,8.17-8.17
		c4.505,0,8.169,3.665,8.169,8.17v43.574c0,13.516,10.996,24.511,24.512,24.511h27.234c4.513,0,8.17-3.658,8.17-8.17V79.599
		c0-4.506,3.665-8.17,8.17-8.17s8.17,3.665,8.17,8.17V281.13c0,4.512,3.657,8.17,8.17,8.17h27.234
		c13.515,0,24.511-10.995,24.511-24.511v-43.574c0-4.506,3.665-8.17,8.17-8.17s8.17,3.665,8.17,8.17v43.574
		c0,22.526-18.325,40.851-40.851,40.851H351.32c-4.513,0-8.17,3.658-8.17,8.17v135.039c0,2.827,1.462,5.453,3.865,6.944
		c2.402,1.49,5.404,1.632,7.938,0.375c32.851-16.306,61.514-40.749,82.888-70.686c21.796-30.526,35.609-66.282,39.948-103.403
		C478.06,279.763,477.328,277.442,475.777,275.699z"/>
	<path style="fill:#03242B;" d="M51.72,289.301h234.238c4.513,0,8.17-3.658,8.17-8.17c0-4.512-3.657-8.17-8.17-8.17H42.326
		c-2.332,0-4.554,0.997-6.104,2.739c-1.55,1.742-2.282,4.063-2.012,6.379c5.623,48.112,27.364,93.913,61.216,128.967
		c1.604,1.66,3.739,2.495,5.878,2.495c2.043,0,4.088-0.761,5.674-2.293c3.245-3.134,3.337-8.306,0.202-11.553
		C77.949,369.425,58.462,330.521,51.72,289.301z"/>
</g>
<g>
</g>
<g>
</g>
<g>
</g>
<g>
</g>
<g>
</g>
<g>
</g>
<g>
</g>
<g>
</g>
<g>
</g>
<g>
</g>
<g>
</g>
<g>
</g>
<g>
</g>
<g>
</g>
<g>
</g>
</svg>
