<?xml version="1.0" encoding="iso-8859-1"?>
<!-- Generator: Adobe Illustrator 19.0.0, SVG Export Plug-In . SVG Version: 6.00 Build 0)  -->
<svg version="1.1" id="Layer_1" xmlns="http://www.w3.org/2000/svg" xmlns:xlink="http://www.w3.org/1999/xlink" x="0px" y="0px"
	 viewBox="0 0 512 512" style="enable-background:new 0 0 512 512;" xml:space="preserve">
<circle style="fill:#096C80;" cx="256" cy="256" r="247.83"/>
<path style="fill:#89EBFF;" d="M136.17,269.617l-94.877-0.013c3.698,58.957,31.253,111.542,73.09,148.209L136.17,269.617z"/>
<path style="fill:#4DE1FF;" d="M375.83,269.617l21.787,148.196c41.837-36.667,69.391-89.251,73.09-148.209L375.83,269.617z"/>
<path style="fill:#FFFFFF;" d="M114.383,417.959c24.71,21.625,54.409,37.685,87.149,46.228l21.787-314.4H114.383V417.959z"/>
<path style="fill:#C4F5FF;" d="M310.468,464.187c32.74-8.542,62.439-24.603,87.149-46.228V204.255l-87.149-54.468h-21.787
	L310.468,464.187z"/>
<path style="fill:#4DE1FF;" d="M310.468,106.213h-21.787c0-18.05-14.631-32.681-32.681-32.681s-32.681,14.631-32.681,32.681h-21.787
	v76.255h108.936V106.213z"/>
<path style="fill:#064855;" d="M201.532,464.187c17.397,4.539,35.649,6.962,54.468,6.962s37.071-2.424,54.468-6.962v-31.166H201.532
	V464.187z"/>
<rect x="201.532" y="182.468" style="fill:#2DB8D4;" width="108.936" height="250.553"/>
<path style="fill:#0C8FAA;" d="M313.191,441.191H198.809c-4.513,0-8.17-3.658-8.17-8.17c0-4.512,3.657-8.17,8.17-8.17h114.383
	c4.513,0,8.17,3.658,8.17,8.17C321.362,437.533,317.705,441.191,313.191,441.191z"/>
<line style="fill:none;stroke:#0C8FAA;stroke-width:15;stroke-linecap:round;stroke-linejoin:round;stroke-miterlimit:10;" x1="234.213" y1="149.787" x2="277.787" y2="149.787"/>
<g>
	<path style="fill:#03242B;" d="M437.019,74.981C388.667,26.628,324.38,0,256,0S123.333,26.628,74.981,74.981
		C26.628,123.332,0,187.62,0,256s26.628,132.668,74.981,181.019C123.333,485.372,187.62,512,256,512s132.667-26.628,181.019-74.981
		C485.372,388.668,512,324.38,512,256S485.372,123.332,437.019,74.981z M256,495.66c-132.149,0-239.66-107.51-239.66-239.66
		S123.851,16.34,256,16.34S495.66,123.851,495.66,256S388.149,495.66,256,495.66z"/>
	<circle style="fill:#03242B;" cx="256" cy="106.213" r="8.17"/>
	<path style="fill:#03242B;" d="M476.661,264.023c-1.545-1.644-3.699-2.576-5.956-2.576h-28.374v-24.511
		c0-4.512-3.657-8.17-8.17-8.17c-4.513,0-8.17,3.658-8.17,8.17v24.511h-20.204v-57.191c0-2.817-1.451-5.435-3.84-6.928
		l-83.309-52.068v-39.046c0-4.512-3.657-8.17-8.17-8.17h-14.437C292.234,79.42,275.727,65.362,256,65.362
		s-36.234,14.058-40.031,32.681h-14.437c-4.513,0-8.17,3.658-8.17,8.17v35.404h-27.234v-24.511c0-4.512-3.657-8.17-8.17-8.17
		s-8.17,3.658-8.17,8.17v24.511h-35.404c-4.513,0-8.17,3.658-8.17,8.17v111.658l-64.918-0.011c-2.256,0-4.412,0.932-5.957,2.576
		c-1.544,1.644-2.34,3.854-2.199,6.105c3.838,61.191,32.317,115.455,75.37,153.38c0.306,0.317,0.639,0.606,0.992,0.87
		c25.479,22.182,55.982,38.668,89.467,47.538c0.334,0.111,0.678,0.2,1.031,0.268c17.93,4.657,36.697,7.147,56.002,7.147
		c18.965,0,37.778-2.428,55.978-7.144c0.374-0.07,0.738-0.166,1.092-0.285c19.25-5.093,37.801-12.752,55.093-22.84
		c32.923-19.204,60.602-46.69,80.045-79.485c2.301-3.881,1.021-8.894-2.861-11.194c-3.881-2.302-8.895-1.021-11.194,2.861
		c-8.081,13.629-17.629,26.133-28.366,37.364V277.787h56.035c-1.996,18.978-6.606,37.53-13.743,55.261
		c-1.685,4.186,0.341,8.945,4.527,10.63c4.189,1.686,8.946-0.343,10.63-4.529c8.876-22.051,14.133-45.273,15.624-69.021
		C479.001,267.877,478.206,265.668,476.661,264.023z M209.702,190.638h92.596v234.213h-92.596V190.638z M209.702,114.383h13.617
		c4.513,0,8.17-3.658,8.17-8.17c0-13.516,10.996-24.511,24.511-24.511c13.515,0,24.511,10.995,24.511,24.511
		c0,4.512,3.657,8.17,8.17,8.17h13.617v59.915h-92.596V114.383z M50.175,277.776l56.038,0.01v57.193c0,4.512,3.657,8.17,8.17,8.17
		s8.17-3.658,8.17-8.17V157.957h70.809v266.894h-2.723c-4.513,0-8.17,3.658-8.17,8.17c0,4.512,3.657,8.17,8.17,8.17h2.723v12.068
		c-26.206-8.353-50.21-21.807-70.809-39.214V367.66c0-4.512-3.657-8.17-8.17-8.17s-8.17,3.658-8.17,8.17v31.001
		C75.572,366.533,55.081,324.548,50.175,277.776z M209.702,457.727v-16.535h92.596v16.456c-15.046,3.498-30.567,5.331-46.298,5.331
		C240.109,462.979,224.612,461.156,209.702,457.727z M318.638,453.113v-11.922h2.723c4.513,0,8.17-3.658,8.17-8.17
		c0-4.512-3.657-8.17-8.17-8.17h-2.723V164.528l70.809,44.255v205.134C368.632,431.46,344.536,444.804,318.638,453.113z"/>
	<path style="fill:#03242B;" d="M354.043,348.596c-4.513,0-8.17,3.658-8.17,8.17v10.894c0,4.512,3.657,8.17,8.17,8.17
		s8.17-3.658,8.17-8.17v-10.894C362.213,352.254,358.556,348.596,354.043,348.596z"/>
	<path style="fill:#03242B;" d="M354.043,305.021c-4.513,0-8.17,3.658-8.17,8.17v10.894c0,4.512,3.657,8.17,8.17,8.17
		s8.17-3.658,8.17-8.17v-10.894C362.213,308.679,358.556,305.021,354.043,305.021z"/>
	<path style="fill:#03242B;" d="M354.043,261.447c-4.513,0-8.17,3.658-8.17,8.17v10.894c0,4.512,3.657,8.17,8.17,8.17
		s8.17-3.658,8.17-8.17v-10.894C362.213,265.105,358.556,261.447,354.043,261.447z"/>
	<path style="fill:#03242B;" d="M354.043,217.872c-4.513,0-8.17,3.658-8.17,8.17v10.894c0,4.512,3.657,8.17,8.17,8.17
		s8.17-3.658,8.17-8.17v-10.894C362.213,221.53,358.556,217.872,354.043,217.872z"/>
	<path style="fill:#03242B;" d="M157.957,375.83c4.513,0,8.17-3.658,8.17-8.17v-10.894c0-4.512-3.657-8.17-8.17-8.17
		s-8.17,3.658-8.17,8.17v10.894C149.787,372.172,153.444,375.83,157.957,375.83z"/>
	<path style="fill:#03242B;" d="M157.957,332.255c4.513,0,8.17-3.658,8.17-8.17v-10.894c0-4.512-3.657-8.17-8.17-8.17
		s-8.17,3.658-8.17,8.17v10.894C149.787,328.597,153.444,332.255,157.957,332.255z"/>
	<path style="fill:#03242B;" d="M157.957,288.681c4.513,0,8.17-3.658,8.17-8.17v-10.894c0-4.512-3.657-8.17-8.17-8.17
		s-8.17,3.658-8.17,8.17v10.894C149.787,285.023,153.444,288.681,157.957,288.681z"/>
	<path style="fill:#03242B;" d="M157.957,201.532c4.513,0,8.17-3.658,8.17-8.17v-10.894c0-4.512-3.657-8.17-8.17-8.17
		s-8.17,3.658-8.17,8.17v10.894C149.787,197.874,153.444,201.532,157.957,201.532z"/>
	<path style="fill:#03242B;" d="M157.957,245.106c4.513,0,8.17-3.658,8.17-8.17v-10.894c0-4.512-3.657-8.17-8.17-8.17
		s-8.17,3.658-8.17,8.17v10.894C149.787,241.448,153.444,245.106,157.957,245.106z"/>
	<path style="fill:#03242B;" d="M256,381.277c-4.513,0-8.17,3.658-8.17,8.17v10.894c0,4.512,3.657,8.17,8.17,8.17
		s8.17-3.658,8.17-8.17v-10.894C264.17,384.935,260.513,381.277,256,381.277z"/>
	<path style="fill:#03242B;" d="M256,337.702c-4.513,0-8.17,3.658-8.17,8.17v10.894c0,4.512,3.657,8.17,8.17,8.17
		s8.17-3.658,8.17-8.17v-10.894C264.17,341.36,260.513,337.702,256,337.702z"/>
	<path style="fill:#03242B;" d="M256,294.128c-4.513,0-8.17,3.658-8.17,8.17v10.894c0,4.512,3.657,8.17,8.17,8.17
		s8.17-3.658,8.17-8.17v-10.894C264.17,297.786,260.513,294.128,256,294.128z"/>
	<path style="fill:#03242B;" d="M256,250.553c-4.513,0-8.17,3.658-8.17,8.17v10.894c0,4.512,3.657,8.17,8.17,8.17
		s8.17-3.658,8.17-8.17v-10.894C264.17,254.211,260.513,250.553,256,250.553z"/>
	<path style="fill:#03242B;" d="M256,206.979c-4.513,0-8.17,3.658-8.17,8.17v10.894c0,4.512,3.657,8.17,8.17,8.17
		s8.17-3.658,8.17-8.17v-10.894C264.17,210.637,260.513,206.979,256,206.979z"/>
	<path style="fill:#03242B;" d="M234.213,157.957h43.574c4.513,0,8.17-3.658,8.17-8.17s-3.657-8.17-8.17-8.17h-43.574
		c-4.513,0-8.17,3.658-8.17,8.17S229.7,157.957,234.213,157.957z"/>
</g>
<g>
</g>
<g>
</g>
<g>
</g>
<g>
</g>
<g>
</g>
<g>
</g>
<g>
</g>
<g>
</g>
<g>
</g>
<g>
</g>
<g>
</g>
<g>
</g>
<g>
</g>
<g>
</g>
<g>
</g>
</svg>
