<?xml version="1.0" encoding="iso-8859-1"?>
<!-- Generator: Adobe Illustrator 19.0.0, SVG Export Plug-In . SVG Version: 6.00 Build 0)  -->
<svg version="1.1" id="Layer_1" xmlns="http://www.w3.org/2000/svg" xmlns:xlink="http://www.w3.org/1999/xlink" x="0px" y="0px"
	 viewBox="0 0 512 512" style="enable-background:new 0 0 512 512;" xml:space="preserve">
<circle style="fill:#AA1106;" cx="256" cy="256" r="247.83"/>
<path style="fill:#FF6E36;" d="M256.069,471.147c-67.35-0.053-127.789-31.22-167.232-79.867l96.446-166.825
	c5.998-10.374,20.709-18.862,32.692-18.862h76.255c11.983,0,26.689,8.49,32.681,18.868l96.288,166.797
	C383.754,439.905,323.419,471.093,256.069,471.147z"/>
<rect x="217.97" y="118.74" style="fill:#FF5347;" width="32.681" height="108.642"/>
<g>
	<rect x="250.651" y="118.74" style="fill:#FF1909;" width="43.574" height="108.642"/>
	<path style="fill:#FF1909;" d="M277.787,292.875v73.439c0,12.033,9.754,21.787,21.787,21.787s21.787-9.754,21.787-21.787v-148.78
		c-7.233-6.973-17.972-11.94-27.132-11.94h-76.255c-9.245,0-20.098,5.061-27.336,12.134v104.359
		c0,12.033,9.754,21.787,21.787,21.787s21.787-9.754,21.787-21.787v-29.212c0-12.033,9.754-21.787,21.787-21.787
		C268.033,271.088,277.787,280.843,277.787,292.875z"/>
</g>
<path style="fill:#FFC6C2;" d="M322.791,82.529c-3.9,0-7.688,0.477-11.312,1.37C305.16,59.151,282.718,40.851,256,40.851
	s-49.16,18.3-55.479,43.048c-3.624-0.893-7.412-1.37-11.312-1.37c-26.015,0-47.105,21.09-47.105,47.105h227.793
	C369.896,103.619,348.807,82.529,322.791,82.529z"/>
<g>
	<path style="fill:#03242B;" d="M437.019,74.981C388.667,26.628,324.38,0,256,0S123.333,26.628,74.981,74.981
		C26.628,123.332,0,187.62,0,256s26.628,132.668,74.981,181.019C123.333,485.372,187.62,512,256,512s132.667-26.628,181.019-74.981
		C485.372,388.668,512,324.38,512,256S485.372,123.332,437.019,74.981z M256,495.66c-132.149,0-239.66-107.51-239.66-239.66
		S123.851,16.34,256,16.34S495.66,123.851,495.66,256S388.149,495.66,256,495.66z"/>
	<path style="fill:#03242B;" d="M299.574,396.273c16.518,0,29.957-13.438,29.957-29.957v-86.102c0-4.512-3.657-8.17-8.17-8.17
		c-4.513,0-8.17,3.658-8.17,8.17v86.102c0,7.509-6.108,13.617-13.617,13.617s-13.617-6.108-13.617-13.617v-73.439
		c0-16.519-13.439-29.957-29.957-29.957s-29.957,13.438-29.957,29.957v29.211c0,7.509-6.108,13.617-13.617,13.617
		s-13.617-6.108-13.617-13.617v-41.599c0-4.512-3.657-8.17-8.17-8.17s-8.17,3.658-8.17,8.17v41.599
		c0,16.519,13.439,29.957,29.957,29.957s29.957-13.438,29.957-29.957v-29.211c0-7.509,6.108-13.617,13.617-13.617
		c7.509,0,13.617,6.108,13.617,13.617v73.439C269.617,382.833,283.056,396.273,299.574,396.273z"/>
	<circle style="fill:#03242B;" cx="228.276" cy="416.496" r="8.17"/>
	<circle style="fill:#03242B;" cx="189.059" cy="385.993" r="8.17"/>
	<path style="fill:#03242B;" d="M142.103,137.804h67.701v35.109c0,4.512,3.657,8.17,8.17,8.17s8.17-3.658,8.17-8.17v-35.109h13.617
		c4.513,0,8.17-3.658,8.17-8.17c0-4.512-3.657-8.17-8.17-8.17h-88.625c3.764-17.559,19.405-30.765,38.072-30.765
		c3.159,0,6.306,0.381,9.355,1.133c4.35,1.075,8.763-1.564,9.873-5.911c5.549-21.726,25.108-36.9,47.564-36.9
		s42.015,15.174,47.564,36.9c1.11,4.347,5.521,6.985,9.873,5.911c3.049-0.752,6.196-1.133,9.355-1.133
		c18.667,0,34.308,13.205,38.072,30.765h-88.421c-4.513,0-8.17,3.658-8.17,8.17c0,4.512,3.657,8.17,8.17,8.17h13.617v35.109
		c0,4.512,3.657,8.17,8.17,8.17c4.513,0,8.17-3.658,8.17-8.17v-35.109h67.497c4.513,0,8.17-3.658,8.17-8.17
		c0-30.479-24.797-55.275-55.275-55.275c-1.903,0-3.803,0.098-5.692,0.292c-9.585-25.049-33.729-41.97-61.1-41.97
		s-51.515,16.921-61.1,41.97c-1.888-0.194-3.789-0.292-5.692-0.292c-30.479,0-55.275,24.796-55.275,55.275
		C133.933,134.146,137.591,137.804,142.103,137.804z"/>
	<path style="fill:#03242B;" d="M242.485,162.315v10.598c0,4.512,3.657,8.17,8.17,8.17s8.17-3.658,8.17-8.17v-10.598
		c0-4.512-3.657-8.17-8.17-8.17S242.485,157.803,242.485,162.315z"/>
	<path style="fill:#03242B;" d="M430.274,387.152l-96.288-166.775c-7.431-12.871-24.895-22.954-39.756-22.954h-76.255
		c-14.86,0-32.327,10.078-39.765,22.943L81.763,387.191c-1.695,2.931-1.405,6.605,0.728,9.236
		c42.671,52.625,105.848,82.837,173.337,82.891h0.351c35.728-0.028,69.9-8.298,101.567-24.577c4.014-2.063,5.595-6.989,3.531-11.003
		c-2.064-4.013-6.99-5.594-11.001-3.531c-29.34,15.082-61.002,22.743-94.103,22.769h-0.339
		c-60.68-0.048-117.606-26.413-157.072-72.543l93.594-161.888c4.552-7.874,16.523-14.782,25.619-14.782h76.255
		c9.094,0,21.058,6.908,25.605,14.784l93.438,161.84c-10.688,12.484-22.846,23.69-36.207,33.363
		c-3.654,2.646-4.472,7.754-1.827,11.409c2.647,3.656,7.756,4.473,11.41,1.827c16.038-11.61,30.471-25.272,42.897-40.605
		C431.676,393.752,431.965,390.082,430.274,387.152z"/>
</g>
<g>
</g>
<g>
</g>
<g>
</g>
<g>
</g>
<g>
</g>
<g>
</g>
<g>
</g>
<g>
</g>
<g>
</g>
<g>
</g>
<g>
</g>
<g>
</g>
<g>
</g>
<g>
</g>
<g>
</g>
</svg>
