<?xml version="1.0" encoding="iso-8859-1"?>
<!-- Generator: Adobe Illustrator 19.0.0, SVG Export Plug-In . SVG Version: 6.00 Build 0)  -->
<svg version="1.1" id="Layer_1" xmlns="http://www.w3.org/2000/svg" xmlns:xlink="http://www.w3.org/1999/xlink" x="0px" y="0px"
	 viewBox="0 0 512 512" style="enable-background:new 0 0 512 512;" xml:space="preserve">
<circle style="fill:#FFD170;" cx="256" cy="256" r="247.83"/>
<path style="fill:#FF6E36;" d="M256,182.468c-30.034,0-54.468-24.434-54.468-54.468S225.966,73.532,256,73.532
	S310.468,97.966,310.468,128S286.034,182.468,256,182.468z"/>
<path style="fill:#7FB21E;" d="M42.327,281.13C54.813,387.966,145.867,471.149,256,471.149s201.187-83.183,213.673-190.018H42.327z"
	/>
<polygon style="fill:#0C8FAA;" points="177.021,313.811 106.213,313.811 117.106,188.535 133.447,166.747 166.128,177.641 "/>
<polygon style="fill:#096C80;" points="310.468,400.96 201.532,400.96 218.292,208.227 243.431,174.709 293.708,191.467 "/>
<polygon style="fill:#0C8FAA;" points="334.979,313.811 405.787,313.811 394.894,193.982 378.553,183.088 345.872,204.875 "/>
<path style="fill:#03242B;" d="M437.019,74.981C388.668,26.628,324.38,0,256,0S123.332,26.628,74.981,74.981
	C26.628,123.332,0,187.62,0,256s26.628,132.668,74.981,181.019C123.332,485.372,187.62,512,256,512s132.668-26.628,181.019-74.981
	C485.372,388.668,512,324.38,512,256S485.372,123.332,437.019,74.981z M256,495.66c-132.149,0-239.66-107.51-239.66-239.66
	S123.851,16.34,256,16.34S495.66,123.851,495.66,256S388.149,495.66,256,495.66z"/>
<g>
	<path style="fill:#FF984C;" d="M325.518,187.344c1.557,0,3.132-0.444,4.524-1.373l1.824-1.216c0.842-0.561,1.573-1.275,2.155-2.102
		c7.82-11.133,13.068-23.51,15.597-36.783c0.844-4.433-2.064-8.711-6.497-9.555c-4.428-0.843-8.711,2.064-9.555,6.497
		c-2,10.495-6.058,20.317-12.069,29.218l-0.517,0.345c-3.755,2.502-4.769,7.575-2.267,11.329
		C320.286,186.066,322.877,187.344,325.518,187.344z"/>
	<path style="fill:#FF984C;" d="M170.454,152.809c0.516,0,1.041-0.049,1.566-0.151c4.429-0.861,7.323-5.149,6.462-9.578
		c-0.97-4.993-1.462-10.066-1.462-15.079c0-43.549,35.429-78.979,78.979-78.979c37.859,0,70.48,26.986,77.565,64.168
		c0.844,4.432,5.121,7.339,9.555,6.496c4.433-0.844,7.341-5.122,6.497-9.555c-8.55-44.878-47.922-77.45-93.615-77.45
		c-52.56,0-95.319,42.76-95.319,95.319c0,6.057,0.593,12.178,1.762,18.196C163.201,150.099,166.621,152.809,170.454,152.809z"/>
</g>
<g>
	<path style="fill:#03242B;" d="M295.832,165.974c3.688,2.6,8.785,1.717,11.385-1.972c7.472-10.602,11.421-23.051,11.421-36.002
		c0-34.539-28.099-62.638-62.638-62.638S193.362,93.461,193.362,128c0,13.882,4.475,27.048,12.943,38.076
		c1.609,2.096,4.034,3.195,6.486,3.195c1.736,0,3.486-0.551,4.97-1.691c3.58-2.747,4.253-7.877,1.504-11.456
		c-6.256-8.148-9.564-17.874-9.564-28.125c0-25.529,20.769-46.298,46.298-46.298s46.298,20.769,46.298,46.298
		c0,9.562-2.917,18.757-8.437,26.589C291.262,158.278,292.144,163.375,295.832,165.974z"/>
	<path style="fill:#03242B;" d="M475.777,275.699c-1.55-1.742-3.771-2.739-6.104-2.739h-59.396l-7.247-79.718
		c-0.224-2.461-1.549-4.688-3.605-6.058l-16.34-10.894c-2.745-1.83-6.319-1.83-9.064,0l-32.681,21.787
		c-2.035,1.356-3.354,3.552-3.598,5.985l-6.89,68.898h-22.429l-6.572-82.144c-0.261-3.268-2.451-6.062-5.56-7.099l-50.278-16.759
		c-3.335-1.11-7.009,0.036-9.12,2.849l-25.139,33.519c-0.916,1.221-1.472,2.674-1.604,4.194l-5.691,65.441h-22.512l-7.678-95.972
		c-0.261-3.268-2.451-6.062-5.56-7.099l-32.681-10.894c-3.335-1.11-7.009,0.036-9.12,2.849l-16.34,21.787
		c-0.915,1.221-1.472,2.674-1.604,4.194l-7.403,85.134H42.326c-2.332,0-4.554,0.997-6.104,2.739
		c-1.55,1.742-2.282,4.063-2.012,6.379c6.303,53.93,32.185,103.722,72.88,140.207c41.023,36.78,93.906,57.035,148.909,57.035
		c49.284,0,96.048-15.814,135.239-45.734c3.586-2.739,4.274-7.865,1.536-11.452c-2.739-3.586-7.864-4.272-11.452-1.536
		c-36.317,27.726-79.653,42.382-125.322,42.382c-101.925,0-188.174-74.031-204.289-173.678h48.432l-2.07,23.803
		c-0.198,2.281,0.57,4.542,2.117,6.229c1.547,1.687,3.732,2.649,6.022,2.649h70.83c4.512,0,8.17-3.658,8.17-8.17
		c0-0.428-0.033-0.849-0.096-1.259l-1.861-23.251h19.784l-9.648,110.951c-0.198,2.281,0.57,4.542,2.117,6.229
		s3.732,2.649,6.022,2.649h108.936c4.534,0,8.192-3.658,8.192-8.17c0-0.428-0.033-0.849-0.096-1.258l-8.833-110.401h19.488
		l-2.369,23.697c-0.23,2.296,0.523,4.584,2.072,6.295c1.549,1.711,3.75,2.687,6.058,2.687h70.809c2.295,0,4.485-0.965,6.033-2.66
		c1.548-1.695,2.312-3.963,2.104-6.25l-2.161-23.771h48.517c-6.741,41.209-26.23,80.109-55.467,110.385
		c-3.134,3.245-3.044,8.419,0.202,11.553c1.586,1.532,3.631,2.293,5.674,2.293c2.138,0,4.276-0.834,5.878-2.495
		c33.857-35.061,55.599-80.859,61.221-128.958C478.059,279.763,477.327,277.442,475.777,275.699z M115.125,305.641l9.919-114.073
		l11.407-15.207l21.965,7.322l9.756,121.96h-53.046V305.641z M210.444,392.79l15.785-181.529l20.204-26.939l39.561,13.187
		l15.623,195.282h-91.173V392.79z M344.007,305.641l2.366-23.664c0.002-0.022,7.244-72.446,7.244-72.446l24.936-16.624l8.557,5.705
		l7.576,83.347c0.001,0.01,2.153,23.682,2.153,23.682L344.007,305.641z"/>
	<circle style="fill:#03242B;" cx="269.617" cy="357.627" r="8.17"/>
	<circle style="fill:#03242B;" cx="242.383" cy="330.393" r="8.17"/>
</g>
<g>
</g>
<g>
</g>
<g>
</g>
<g>
</g>
<g>
</g>
<g>
</g>
<g>
</g>
<g>
</g>
<g>
</g>
<g>
</g>
<g>
</g>
<g>
</g>
<g>
</g>
<g>
</g>
<g>
</g>
</svg>
