<?xml version="1.0" encoding="iso-8859-1"?>
<!-- Generator: Adobe Illustrator 19.0.0, SVG Export Plug-In . SVG Version: 6.00 Build 0)  -->
<svg version="1.1" id="Layer_1" xmlns="http://www.w3.org/2000/svg" xmlns:xlink="http://www.w3.org/1999/xlink" x="0px" y="0px"
	 viewBox="0 0 512 512" style="enable-background:new 0 0 512 512;" xml:space="preserve">
<circle style="fill:#FFD170;" cx="256" cy="256" r="247.83"/>
<path style="fill:#4DE1FF;" d="M256,471.149c118.823,0,215.149-96.326,215.149-215.149c0-2.757-21.856-5.497-21.959-8.229H62.81
	c-0.103,2.732-21.959,5.472-21.959,8.229C40.851,374.823,137.177,471.149,256,471.149z"/>
<path style="fill:#557714;" d="M80.985,231.573c-14.827,4.104-28.542,11.471-40.118,21.476c-0.013,0.982-0.016,1.966-0.016,2.951
	c0,27.676,5.266,54.141,14.827,78.466L80.985,231.573z"/>
<path style="fill:#405A0F;" d="M113.342,297.882c-2.235-25.454-13.944-49.074-32.356-66.308L55.678,334.466
	c0.243,0.618,33.157,1.241,33.405,1.855L113.342,297.882z"/>
<path style="fill:#7FB21E;" d="M63.617,328.484c-2.532,2.533-4.934,5.146-7.205,7.831l-0.033,0.052
	c8.353,20.728,19.846,39.85,33.879,56.791l96.821-96.821C144.548,284.374,97.025,295.076,63.617,328.484z"/>
<g>
	<path style="fill:#557714;" d="M187.079,296.338l-96.821,96.821c13.284,16.035,28.842,30.118,46.194,41.736l0.218,0.039
		c6.436-4.383,12.555-9.426,18.263-15.135C188.341,386.392,199.043,338.869,187.079,296.338z"/>
	<path style="fill:#557714;" d="M431.015,231.573c14.827,4.104,28.542,11.471,40.118,21.476c0.013,0.982,0.016,1.966,0.016,2.951
		c0,27.676-5.266,54.141-14.827,78.466L431.015,231.573z"/>
</g>
<path style="fill:#405A0F;" d="M398.658,297.882c2.235-25.454,13.944-49.074,32.356-66.308l25.307,102.892
	c-0.243,0.618-33.157,1.241-33.405,1.855L398.658,297.882z"/>
<path style="fill:#7FB21E;" d="M448.383,328.484c2.532,2.533,4.934,5.146,7.205,7.831l0.033,0.052
	c-8.353,20.728-19.846,39.85-33.879,56.791l-96.821-96.821C367.451,284.374,414.975,295.076,448.383,328.484z"/>
<path style="fill:#557714;" d="M324.921,296.338l96.821,96.821c-13.284,16.035-28.842,30.118-46.194,41.736l-0.218,0.039
	c-6.436-4.383-12.555-9.426-18.263-15.135C323.659,386.392,312.957,338.869,324.921,296.338z"/>
<g>
	<path style="fill:#03242B;" d="M437.019,74.981C388.667,26.628,324.38,0,256,0S123.333,26.628,74.981,74.981
		C26.628,123.332,0,187.62,0,256s26.628,132.668,74.981,181.019C123.333,485.372,187.62,512,256,512s132.667-26.628,181.019-74.981
		C485.372,388.668,512,324.38,512,256S485.372,123.332,437.019,74.981z M256,495.66c-132.149,0-239.66-107.51-239.66-239.66
		S123.851,16.34,256,16.34S495.66,123.851,495.66,256S388.149,495.66,256,495.66z"/>
	<path style="fill:#03242B;" d="M463.218,339.235c10.375-25.737,16.101-53.829,16.101-83.235c0-1.023-0.002-2.046-0.017-3.065
		c-0.033-2.333-1.062-4.54-2.827-6.067c-12.458-10.768-27.425-18.779-43.28-23.169c-0.346-0.093-0.667-0.159-0.992-0.207
		c-0.059-0.009-0.118-0.012-0.178-0.02c-0.255-0.032-0.512-0.052-0.771-0.059c-0.097-0.003-0.193-0.003-0.29-0.003
		c-0.225,0.001-0.451,0.014-0.679,0.035c-0.099,0.009-0.198,0.014-0.296,0.027c-0.277,0.035-0.555,0.085-0.831,0.149
		c-0.066,0.015-0.133,0.033-0.199,0.05c-0.272,0.071-0.538,0.155-0.796,0.251c-0.092,0.034-0.181,0.074-0.27,0.112
		c-0.214,0.088-0.42,0.183-0.623,0.286c-0.084,0.044-0.168,0.088-0.249,0.134c-0.228,0.127-0.448,0.265-0.659,0.413
		c-0.048,0.034-0.098,0.063-0.146,0.098c-0.265,0.193-0.517,0.4-0.756,0.621c-4.653,4.352-8.85,9.045-12.632,14.015h-29.759V165.3
		c15.335,3.69,26.767,17.511,26.767,33.962c0,4.512,3.657,8.17,8.17,8.17c4.513,0,8.17-3.658,8.17-8.17
		c0-18.038-9.371-33.918-23.491-43.061c9.939,0.707,19.515,5.621,25.816,14.295c1.599,2.201,4.089,3.368,6.616,3.368
		c1.665,0,3.345-0.508,4.795-1.561c3.652-2.653,4.46-7.762,1.807-11.412c-10.603-14.593-27.519-21.933-44.318-21.029
		c8.456-5.271,19.091-6.924,29.291-3.611c4.288,1.395,8.901-0.953,10.294-5.245c1.394-4.291-0.954-8.9-5.245-10.294
		c-21.359-6.939-44.027,0.96-56.832,17.974c-10.089-13.438-26.425-21.412-43.903-20.416c-4.505,0.259-7.947,4.121-7.688,8.626
		c0.257,4.505,4.104,7.947,8.626,7.689c7.413-0.431,14.535,1.525,20.516,5.282c-16.82-0.926-33.766,6.414-44.382,21.026
		c-2.653,3.65-1.843,8.761,1.807,11.412c1.45,1.053,3.13,1.561,4.795,1.561c2.525,0,5.017-1.168,6.616-3.368
		c6.302-8.674,15.877-13.588,25.816-14.294c-14.12,9.143-23.491,25.024-23.491,43.061c0,4.512,3.657,8.17,8.17,8.17
		c4.513,0,8.17-3.658,8.17-8.17c0-16.45,11.432-30.272,26.766-33.962v74.301H264.17V85.776c15.334,3.69,26.766,17.511,26.766,33.962
		c0,4.512,3.657,8.17,8.17,8.17c4.513,0,8.17-3.658,8.17-8.17c0-18.038-9.371-33.918-23.491-43.061
		c9.939,0.707,19.515,5.621,25.817,14.295c1.599,2.201,4.089,3.368,6.616,3.368c1.665,0,3.345-0.508,4.795-1.561
		c3.652-2.653,4.46-7.762,1.807-11.412c-10.603-14.593-27.518-21.932-44.317-21.029c8.456-5.27,19.09-6.923,29.29-3.611
		c4.289,1.397,8.901-0.953,10.294-5.245c1.394-4.291-0.954-8.9-5.245-10.294c-21.363-6.94-44.039,0.964-56.843,17.988
		c-12.805-17.023-35.482-24.928-56.843-17.988c-4.291,1.394-6.641,6.003-5.245,10.294c1.393,4.292,6.009,6.643,10.294,5.245
		c10.199-3.315,20.835-1.661,29.292,3.611c-16.799-0.904-33.716,6.435-44.32,21.028c-2.653,3.65-1.843,8.761,1.807,11.412
		c1.45,1.053,3.13,1.561,4.795,1.561c2.525,0,5.017-1.168,6.616-3.368c6.302-8.672,15.876-13.587,25.816-14.294
		c-14.12,9.143-23.49,25.024-23.49,43.061c0,4.512,3.657,8.17,8.17,8.17s8.17-3.658,8.17-8.17c0-16.45,11.432-30.272,26.766-33.962
		v153.824H145.271V165.3c15.334,3.69,26.766,17.511,26.766,33.962c0,4.512,3.657,8.17,8.17,8.17s8.17-3.658,8.17-8.17
		c0-18.038-9.371-33.918-23.49-43.061c9.939,0.707,19.514,5.621,25.816,14.294c1.599,2.201,4.089,3.368,6.616,3.368
		c1.665,0,3.345-0.508,4.795-1.561c3.652-2.653,4.46-7.762,1.807-11.412c-10.618-14.613-27.565-21.953-44.385-21.025
		c5.977-3.754,13.098-5.709,20.519-5.282c4.53,0.258,8.367-3.183,8.626-7.689c0.259-4.505-3.183-8.366-7.688-8.626
		c-17.458-0.992-33.805,6.981-43.901,20.42c-12.807-17.017-35.478-24.917-56.835-17.978c-4.291,1.394-6.641,6.003-5.245,10.294
		c1.394,4.293,6.01,6.642,10.294,5.245c10.199-3.314,20.834-1.66,29.291,3.611c-16.798-0.903-33.715,6.436-44.319,21.028
		c-2.653,3.65-1.843,8.761,1.807,11.412c1.45,1.053,3.13,1.561,4.795,1.561c2.525,0,5.017-1.168,6.616-3.368
		c6.302-8.672,15.876-13.587,25.816-14.294c-14.12,9.143-23.491,25.024-23.491,43.061c0,4.512,3.657,8.17,8.17,8.17
		s8.17-3.658,8.17-8.17c0-16.45,11.432-30.272,26.767-33.962v74.301H99.173c-3.782-4.971-7.98-9.663-12.606-13.993
		c-0.265-0.243-0.517-0.45-0.782-0.644c-0.048-0.035-0.097-0.064-0.146-0.098c-0.212-0.147-0.431-0.284-0.659-0.412
		c-0.083-0.047-0.167-0.09-0.251-0.135c-0.203-0.105-0.411-0.199-0.624-0.288c-0.089-0.037-0.178-0.077-0.268-0.111
		c-0.263-0.097-0.532-0.182-0.808-0.254c-0.06-0.015-0.119-0.031-0.179-0.045c-0.284-0.068-0.569-0.118-0.852-0.154
		c-0.086-0.011-0.171-0.015-0.257-0.023c-0.245-0.023-0.489-0.036-0.732-0.037c-0.081,0-0.16,0-0.241,0.002
		c-0.285,0.008-0.568,0.028-0.848,0.065c-0.036,0.004-0.071,0.007-0.107,0.012c-0.338,0.049-0.669,0.118-0.995,0.208
		c-15.872,4.392-30.839,12.403-43.297,23.172c-1.765,1.526-2.793,3.733-2.827,6.067c-0.013,1.02-0.015,2.043-0.015,3.066
		c0,29.406,5.726,57.498,16.101,83.234c0.021,0.053,0.044,0.107,0.065,0.159c16.906,41.843,46.13,77.434,83.162,102.249
		c0.051,0.035,0.102,0.068,0.155,0.101c35.463,23.723,78.06,37.576,123.836,37.576c45.777,0,88.374-13.853,123.839-37.576
		c0.05-0.034,0.101-0.065,0.151-0.099c37.033-24.816,66.258-60.406,83.164-102.25C463.175,339.341,463.199,339.288,463.218,339.235z
		 M452.482,321.084c-13.091-12.642-28.409-22.275-44.919-28.628c2.488-16.143,9.098-31.306,19.162-44.12l9.045,36.775
		c0.917,3.726,4.254,6.22,7.927,6.22c0.646,0,1.302-0.077,1.958-0.239c4.381-1.077,7.06-5.503,5.983-9.885l-9.038-36.746
		c7.27,3.287,14.153,7.463,20.378,12.434C462.881,279.303,459.192,300.876,452.482,321.084z M69.401,244.459l-9.038,36.746
		c-1.077,4.381,1.601,8.807,5.983,9.885c0.656,0.161,1.312,0.239,1.958,0.239c3.673,0,7.011-2.495,7.927-6.22l9.045-36.775
		c10.064,12.814,16.674,27.978,19.162,44.121c-16.509,6.353-31.828,15.986-44.919,28.628c-6.712-20.208-10.4-41.782-10.496-64.192
		C55.249,251.923,62.131,247.746,69.401,244.459z M65.922,337.884c1.134-1.233,2.294-2.443,3.473-3.622
		c26.674-26.675,64.45-38.744,101.313-33.107l-62.947,62.947c-3.191,3.191-3.191,8.364,0,11.554
		c1.596,1.596,3.686,2.393,5.778,2.393c2.09,0,4.182-0.797,5.778-2.393l62.945-62.945c5.636,36.865-6.432,74.638-33.106,101.313
		c-3.939,3.939-8.157,7.603-12.584,10.936C105.721,403.087,81.101,372.984,65.922,337.884z M151.062,434.335
		c3.349-2.759,6.575-5.684,9.65-8.757c34.28-34.281,47.398-84.651,34.234-131.452c-0.1-0.345-0.21-0.656-0.339-0.962
		c-0.02-0.046-0.042-0.09-0.063-0.136c-0.109-0.246-0.231-0.487-0.365-0.722c-0.042-0.074-0.086-0.148-0.131-0.221
		c-0.126-0.207-0.264-0.407-0.41-0.605c-0.05-0.068-0.096-0.136-0.148-0.202c-0.195-0.247-0.402-0.488-0.63-0.716
		c-0.233-0.233-0.474-0.44-0.72-0.635c-0.066-0.052-0.136-0.099-0.204-0.149c-0.196-0.146-0.395-0.282-0.601-0.407
		c-0.074-0.045-0.148-0.089-0.223-0.132c-0.234-0.134-0.474-0.255-0.718-0.363c-0.047-0.021-0.093-0.045-0.141-0.065
		c-0.305-0.129-0.614-0.239-0.929-0.328c-22.981-6.466-46.786-6.587-69.135-1.007c-1.96-11.043-5.586-21.658-10.69-31.536h293.001
		c-5.103,9.878-8.73,20.492-10.689,31.535c-22.347-5.581-46.152-5.46-69.104,0.997c-0.346,0.101-0.657,0.21-0.961,0.339
		c-0.047,0.02-0.092,0.044-0.138,0.064c-0.245,0.109-0.485,0.23-0.721,0.364c-0.075,0.042-0.148,0.086-0.221,0.131
		c-0.206,0.126-0.407,0.264-0.604,0.41c-0.068,0.05-0.136,0.097-0.202,0.148c-0.247,0.195-0.487,0.402-0.715,0.63
		c-0.233,0.233-0.44,0.474-0.635,0.721c-0.051,0.065-0.098,0.134-0.148,0.202c-0.146,0.197-0.283,0.399-0.41,0.606
		c-0.045,0.073-0.087,0.146-0.13,0.22c-0.134,0.236-0.256,0.477-0.365,0.723c-0.021,0.046-0.044,0.089-0.063,0.136
		c-0.129,0.306-0.239,0.617-0.329,0.934c-13.174,46.831-0.056,97.199,34.224,131.482c3.074,3.073,6.3,5.997,9.648,8.756
		c-30.791,18.186-66.665,28.643-104.94,28.643S181.85,452.522,151.062,434.335z M375.429,424.959
		c-4.428-3.333-8.645-6.997-12.584-10.935c-26.675-26.675-38.743-64.448-33.107-101.313l62.947,62.947
		c1.596,1.595,3.688,2.393,5.778,2.393s4.182-0.797,5.778-2.393c3.191-3.191,3.191-8.364,0-11.554l-62.948-62.948
		c36.864-5.635,74.638,6.431,101.315,33.107c1.179,1.178,2.338,2.388,3.472,3.621C430.899,372.984,406.28,403.087,375.429,424.959z"
		/>
	<path style="fill:#03242B;" d="M216.561,288.622h78.698c4.513,0,8.17-3.658,8.17-8.17c0-4.512-3.657-8.17-8.17-8.17h-78.698
		c-4.513,0-8.17,3.658-8.17,8.17C208.391,284.964,212.048,288.622,216.561,288.622z"/>
	<path style="fill:#03242B;" d="M224.481,304.962c-4.513,0-8.17,3.658-8.17,8.17c0,4.512,3.657,8.17,8.17,8.17h30.355
		c4.513,0,8.17-3.658,8.17-8.17c0-4.512-3.657-8.17-8.17-8.17H224.481z"/>
	<path style="fill:#03242B;" d="M303.073,378.494c0-4.512-3.657-8.17-8.17-8.17h-45.126c-4.513,0-8.17,3.658-8.17,8.17
		c0,4.512,3.657,8.17,8.17,8.17h45.126C299.415,386.665,303.073,383.007,303.073,378.494z"/>
	<path style="fill:#03242B;" d="M307.91,403.005h-48.682c-4.513,0-8.17,3.658-8.17,8.17c0,4.512,3.657,8.17,8.17,8.17h48.682
		c4.513,0,8.17-3.658,8.17-8.17C316.08,406.663,312.423,403.005,307.91,403.005z"/>
	<path style="fill:#03242B;" d="M226.547,403.005H204.76c-4.513,0-8.17,3.658-8.17,8.17c0,4.512,3.657,8.17,8.17,8.17h21.787
		c4.513,0,8.17-3.658,8.17-8.17C234.717,406.663,231.059,403.005,226.547,403.005z"/>
</g>
<g>
</g>
<g>
</g>
<g>
</g>
<g>
</g>
<g>
</g>
<g>
</g>
<g>
</g>
<g>
</g>
<g>
</g>
<g>
</g>
<g>
</g>
<g>
</g>
<g>
</g>
<g>
</g>
<g>
</g>
</svg>
