<?xml version="1.0" encoding="iso-8859-1"?>
<!-- Generator: Adobe Illustrator 19.0.0, SVG Export Plug-In . SVG Version: 6.00 Build 0)  -->
<svg version="1.1" id="Layer_1" xmlns="http://www.w3.org/2000/svg" xmlns:xlink="http://www.w3.org/1999/xlink" x="0px" y="0px"
	 viewBox="0 0 512 512" style="enable-background:new 0 0 512 512;" xml:space="preserve">
<circle style="fill:#FFF0CF;" cx="256" cy="256" r="247.83"/>
<path style="fill:#FF6E36;" d="M256,182.468c-30.034,0-54.468-24.434-54.468-54.468S225.966,73.532,256,73.532
	S310.468,97.966,310.468,128S286.034,182.468,256,182.468z"/>
<path style="fill:#FFC240;" d="M256,284.868C202.627,254.331,149.248,223.8,43.322,223.33c-1.622,10.652-2.471,21.566-2.471,32.67
	c0,32.155,7.054,62.662,19.699,90.059l55.909,27.531l172.975-70.12C277.983,297.445,266.992,291.157,256,284.868z"/>
<path style="fill:#FF984C;" d="M468.678,223.33c-105.926,0.468-159.305,31-212.678,61.538
	c-50.396,28.834-100.801,57.663-195.438,61.185C94.645,419.897,169.331,471.149,256,471.149
	c118.823,0,215.149-96.326,215.149-215.149C471.149,244.896,470.3,233.982,468.678,223.33z"/>
<g>
	<path style="fill:none;stroke:#FF984C;stroke-width:15;stroke-linecap:round;stroke-linejoin:round;stroke-miterlimit:10;" d="
		M272.34,213.59c34.971-6.664,62.586-34.279,69.25-69.25"/>
	<path style="fill:none;stroke:#FF984C;stroke-width:15;stroke-linecap:round;stroke-linejoin:round;stroke-miterlimit:10;" d="
		M341.59,111.66c-7.672-40.267-43.122-70.809-85.59-70.809c-48.054,0-87.149,39.095-87.149,87.149
		c0,42.468,30.541,77.918,70.809,85.59"/>
</g>
<g>
	<path style="fill:#03242B;" d="M437.019,74.981C388.667,26.628,324.38,0,256,0S123.332,26.628,74.981,74.981
		C26.628,123.332,0,187.62,0,256s26.628,132.668,74.981,181.019C123.332,485.372,187.62,512,256,512s132.667-26.628,181.019-74.981
		C485.372,388.668,512,324.38,512,256S485.372,123.332,437.019,74.981z M256,495.66c-132.149,0-239.66-107.51-239.66-239.66
		S123.851,16.34,256,16.34S495.66,123.851,495.66,256S388.149,495.66,256,495.66z"/>
	<path style="fill:#03242B;" d="M318.638,128c0-34.539-28.099-62.638-62.638-62.638S193.362,93.461,193.362,128
		s28.099,62.638,62.638,62.638S318.638,162.539,318.638,128z M256,174.298c-25.529,0-46.298-20.769-46.298-46.298
		S230.471,81.702,256,81.702s46.298,20.769,46.298,46.298S281.529,174.298,256,174.298z"/>
	<path style="fill:#03242B;" d="M390.741,412.979c-37.509,32.243-85.361,50-134.741,50c-114.128,0-206.979-92.85-206.979-206.979
		c0-8.159,0.481-16.347,1.434-24.426c80.446,1.439,128.446,20.943,168.302,41.918c3.992,2.1,8.933,0.568,11.035-3.426
		c2.101-3.992,0.568-8.934-3.426-11.035c-42.863-22.557-94.7-43.486-183.003-43.877c-4.07,0-7.501,2.945-8.112,6.934
		c-1.705,11.147-2.57,22.557-2.57,33.913c0,123.139,100.18,223.319,223.319,223.319c53.286,0,104.921-19.159,145.392-53.948
		c3.423-2.941,3.812-8.1,0.87-11.522C399.32,410.428,394.162,410.038,390.741,412.979z"/>
	<circle style="fill:#03242B;" cx="340.916" cy="356.581" r="8.17"/>
	<circle style="fill:#03242B;" cx="123.043" cy="280.325" r="8.17"/>
	<circle style="fill:#03242B;" cx="382.311" cy="302.113" r="8.17"/>
	<path style="fill:#03242B;" d="M476.749,222.088c-0.611-3.99-4.043-6.934-8.077-6.934c-108.115,0.478-163.332,32.07-216.73,62.622
		c-44.24,25.312-86.028,49.221-157.029,57.503c-4.482,0.523-7.692,4.581-7.169,9.062c0.523,4.483,4.581,7.695,9.062,7.168
		c74.322-8.67,119.53-34.536,163.251-59.551c52.679-30.14,102.498-58.649,201.488-60.387c0.952,8.081,1.432,16.269,1.432,24.428
		c0,49.38-17.758,97.231-50,134.74c-2.941,3.422-2.552,8.58,0.87,11.522c1.541,1.326,3.436,1.975,5.323,1.975
		c2.297,0,4.583-0.965,6.198-2.844c34.789-40.472,53.948-92.107,53.948-145.393C479.319,244.644,478.454,233.235,476.749,222.088z"
		/>
</g>
<g>
	<path style="fill:#FF984C;" d="M272.331,221.762c0.508,0,1.022-0.047,1.539-0.146c38.055-7.252,68.495-37.692,75.745-75.747
		c0.844-4.433-2.064-8.711-6.496-9.555c-4.432-0.842-8.712,2.064-9.555,6.497c-6.009,31.527-31.227,56.746-62.754,62.754
		c-4.432,0.844-7.34,5.122-6.496,9.555C265.06,219.036,268.486,221.762,272.331,221.762z"/>
	<path style="fill:#FF984C;" d="M238.13,221.616c0.516,0.098,1.031,0.146,1.538,0.146c3.844,0,7.27-2.727,8.017-6.643
		c0.844-4.433-2.064-8.711-6.497-9.555C204.007,198.481,177.02,165.86,177.02,128c0-43.549,35.429-78.979,78.979-78.979
		c37.859,0,70.478,26.987,77.565,64.168c0.843,4.433,5.12,7.341,9.555,6.497c4.432-0.844,7.34-5.123,6.496-9.555
		c-8.55-44.878-47.922-77.45-93.614-77.45c-52.56,0-95.319,42.76-95.319,95.319C160.681,173.693,193.253,213.065,238.13,221.616z"/>
</g>
<g>
</g>
<g>
</g>
<g>
</g>
<g>
</g>
<g>
</g>
<g>
</g>
<g>
</g>
<g>
</g>
<g>
</g>
<g>
</g>
<g>
</g>
<g>
</g>
<g>
</g>
<g>
</g>
<g>
</g>
</svg>
